<svg xmlns="http://www.w3.org/2000/svg" width="140" height="97" viewBox="0 0 140 97" fill="none">
<path d="M130.008 0H9.13609C4.09037 0 0 4.09037 0 9.13609V87.8639C0 92.9096 4.09037 97 9.13609 97H130.008C135.054 97 139.144 92.9096 139.144 87.8639V9.13609C139.144 4.09037 135.054 0 130.008 0Z" fill="#A2B2BF"/>
<path d="M129.973 2.90569H9.17134C5.58981 2.90569 2.6864 5.80909 2.6864 9.39062V87.6133C2.6864 91.1948 5.58981 94.0982 9.17134 94.0982H129.973C133.554 94.0982 136.458 91.1948 136.458 87.6133V9.39062C136.458 5.80909 133.554 2.90569 129.973 2.90569Z" fill="#EDF2F4"/>
<path d="M124.602 63.8704H77.1595C76.0825 63.8704 75.2094 64.7435 75.2094 65.8206V86.8536C75.2094 87.9306 76.0825 88.8037 77.1595 88.8037H124.602C125.679 88.8037 126.552 87.9306 126.552 86.8536V65.8206C126.552 64.7435 125.679 63.8704 124.602 63.8704Z" fill="#A2B2BF"/>
<path d="M61.7234 35.3475H14.2807C13.2037 35.3475 12.3306 36.2206 12.3306 37.2976V58.3306C12.3306 59.4077 13.2037 60.2808 14.2807 60.2808H61.7234C62.8005 60.2808 63.6736 59.4077 63.6736 58.3306V37.2976C63.6736 36.2206 62.8005 35.3475 61.7234 35.3475Z" fill="#A2B2BF"/>
<path d="M124.602 35.3891H77.1595C76.0825 35.3891 75.2094 36.2623 75.2094 37.3393V58.3723C75.2094 59.4494 76.0825 60.3225 77.1595 60.3225H124.602C125.679 60.3225 126.552 59.4494 126.552 58.3723V37.3393C126.552 36.2623 125.679 35.3891 124.602 35.3891Z" fill="#F2A057"/>
<path d="M61.7234 64.1187H14.2807C13.2037 64.1187 12.3306 64.9918 12.3306 66.0688V87.1018C12.3306 88.1789 13.2037 89.052 14.2807 89.052H61.7234C62.8005 89.052 63.6736 88.1789 63.6736 87.1018V66.0688C63.6736 64.9918 62.8005 64.1187 61.7234 64.1187Z" fill="#F2A057"/>
<path d="M124.602 6.90791H77.1595C76.0825 6.90791 75.2094 7.78104 75.2094 8.85809V29.8911C75.2094 30.9681 76.0825 31.8413 77.1595 31.8413H124.602C125.679 31.8413 126.552 30.9681 126.552 29.8911V8.85809C126.552 7.78104 125.679 6.90791 124.602 6.90791Z" fill="#A2B2BF"/>
<path d="M61.7234 6.90791H14.2807C13.2037 6.90791 12.3306 7.78104 12.3306 8.85809V29.8911C12.3306 30.9681 13.2037 31.8413 14.2807 31.8413H61.7234C62.8005 31.8413 63.6736 30.9681 63.6736 29.8911V8.85809C63.6736 7.78104 62.8005 6.90791 61.7234 6.90791Z" fill="#A2B2BF"/>
<path d="M92.5691 79.6755H89.6165V83.8421H92.5691V79.6755Z" fill="#F2A057"/>
<path d="M91.0888 80.2198C93.6409 80.2198 95.7097 78.1509 95.7097 75.5989C95.7097 73.0468 93.6409 70.9779 91.0888 70.9779C88.5367 70.9779 86.4679 73.0468 86.4679 75.5989C86.4679 78.1509 88.5367 80.2198 91.0888 80.2198Z" fill="#F2A057"/>
<path d="M92.0091 81.0539L91.0927 83.1764L90.1764 81.0539C86.2995 81.5082 83.2881 84.8055 83.2881 88.8037H98.9013C98.9013 84.8015 95.8899 81.5082 92.013 81.0539H92.0091Z" fill="#0397D6"/>
<path d="M94.4214 70.5355C94.0024 69.952 93.4385 69.4821 92.7767 69.1844H89.4011C88.7393 69.4821 88.1753 69.952 87.7563 70.5355C86.6794 70.7039 85.8571 71.6359 85.8571 72.7598C85.8571 73.8014 86.5619 74.6747 87.5253 74.9332C87.7133 74.9841 87.9091 75.0115 88.1088 75.0115C88.9272 75.0115 89.6439 74.5729 90.0394 73.9228C90.3527 74.0873 90.709 74.1813 91.0889 74.1813C91.4687 74.1813 91.8251 74.0873 92.1384 73.9228C92.5339 74.5768 93.2466 75.0115 94.069 75.0115C94.2726 75.0115 94.4684 74.9841 94.6525 74.9332C95.6119 74.6747 96.3207 73.8014 96.3207 72.7598C96.3207 71.6359 95.4983 70.7078 94.4214 70.5355Z" fill="#0397D6"/>
<path d="M91.0889 65.0413C89.8475 65.0413 88.8372 66.0477 88.8372 67.293C88.8372 67.9078 89.0839 68.4678 89.4872 68.8751C89.5538 68.9416 89.6243 69.0043 89.6987 69.063C89.9297 68.9808 90.1725 68.9181 90.4192 68.8751C90.6385 68.8398 90.8617 68.8202 91.0889 68.8202C91.316 68.8202 91.5392 68.8398 91.7585 68.8751C92.0091 68.9142 92.248 68.9808 92.4791 69.063C92.5535 69.0043 92.624 68.9416 92.6905 68.8751C93.09 68.4678 93.3406 67.9117 93.3406 67.293C93.3406 66.0516 92.3342 65.0413 91.0889 65.0413Z" fill="#0397D6"/>
<path d="M92.483 69.063C92.252 68.9808 92.0092 68.9182 91.7625 68.8751C91.5432 68.8398 91.32 68.8203 91.0928 68.8203C90.8657 68.8203 90.6425 68.8398 90.4232 68.8751C90.1726 68.9142 89.9337 68.9808 89.7027 69.063C89.6008 69.0983 89.5029 69.1414 89.405 69.1844H92.7806C92.6827 69.1414 92.5848 69.0983 92.483 69.063Z" fill="#F2A057"/>
<path d="M29.6902 51.1525H26.7375V55.3192H29.6902V51.1525Z" fill="#F2A057"/>
<path d="M28.2099 51.6968C30.762 51.6968 32.8308 49.628 32.8308 47.0759C32.8308 44.5239 30.762 42.455 28.2099 42.455C25.6578 42.455 23.589 44.5239 23.589 47.0759C23.589 49.628 25.6578 51.6968 28.2099 51.6968Z" fill="#F2A057"/>
<path d="M29.1302 52.531L28.2138 54.6535L27.2975 52.531C23.4206 52.9852 20.4092 56.2825 20.4092 60.2808H36.0224C36.0224 56.2786 33.011 52.9852 29.1341 52.531H29.1302Z" fill="#0397D6"/>
<path d="M31.5425 42.0125C31.1235 41.429 30.5596 40.9591 29.8978 40.6615H26.5222C25.8604 40.9591 25.2964 41.429 24.8774 42.0125C23.8005 42.1809 22.9781 43.1129 22.9781 44.2368C22.9781 45.2785 23.683 46.1518 24.6464 46.4102C24.8344 46.4611 25.0301 46.4886 25.2299 46.4886C26.0483 46.4886 26.7649 46.05 27.1605 45.3999C27.4737 45.5644 27.8301 45.6584 28.21 45.6584C28.5898 45.6584 28.9462 45.5644 29.2595 45.3999C29.655 46.0539 30.3677 46.4886 31.1901 46.4886C31.3937 46.4886 31.5895 46.4611 31.7736 46.4102C32.733 46.1518 33.4418 45.2785 33.4418 44.2368C33.4418 43.1129 32.6194 42.1848 31.5425 42.0125Z" fill="#0397D6"/>
<path d="M28.21 36.5183C26.9686 36.5183 25.9583 37.5248 25.9583 38.7701C25.9583 39.3849 26.205 39.9449 26.6083 40.3521C26.6749 40.4187 26.7454 40.4814 26.8198 40.5401C27.0508 40.4579 27.2936 40.3952 27.5403 40.3521C27.7596 40.3169 27.9828 40.2973 28.21 40.2973C28.4371 40.2973 28.6603 40.3169 28.8796 40.3521C29.1302 40.3913 29.3691 40.4579 29.6002 40.5401C29.6746 40.4814 29.745 40.4187 29.8116 40.3521C30.2111 39.9449 30.4617 39.3888 30.4617 38.7701C30.4617 37.5287 29.4553 36.5183 28.21 36.5183Z" fill="#0397D6"/>
<path d="M29.6041 40.5401C29.3731 40.4579 29.1303 40.3952 28.8836 40.3521C28.6643 40.3169 28.4411 40.2973 28.2139 40.2973C27.9868 40.2973 27.7636 40.3169 27.5443 40.3521C27.2937 40.3913 27.0548 40.4579 26.8237 40.5401C26.7219 40.5754 26.624 40.6184 26.5261 40.6615H29.9017C29.8038 40.6184 29.7059 40.5754 29.6041 40.5401Z" fill="#F2A057"/>
<path d="M92.5691 51.253H89.6165V55.4197H92.5691V51.253Z" fill="#0397D6"/>
<path d="M91.0888 51.7973C93.6409 51.7973 95.7097 49.7285 95.7097 47.1764C95.7097 44.6244 93.6409 42.5555 91.0888 42.5555C88.5367 42.5555 86.4679 44.6244 86.4679 47.1764C86.4679 49.7285 88.5367 51.7973 91.0888 51.7973Z" fill="#0397D6"/>
<path d="M92.0091 52.6315L91.0927 54.754L90.1764 52.6315C86.2995 53.0857 83.2881 56.383 83.2881 60.3813H98.9013C98.9013 56.3791 95.8899 53.0857 92.013 52.6315H92.0091Z" fill="#032F3C"/>
<path d="M94.4214 42.1091C94.0024 41.5256 93.4385 41.0557 92.7767 40.758C92.6788 40.715 92.5809 40.6719 92.4791 40.6367C92.248 40.5544 92.0052 40.4918 91.7585 40.4487C91.5392 40.4134 91.316 40.3939 91.0889 40.3939C90.8617 40.3939 90.6385 40.4134 90.4192 40.4487C90.1686 40.4878 89.9297 40.5544 89.6987 40.6367C89.5969 40.6719 89.499 40.715 89.4011 40.758C88.7393 41.0557 88.1753 41.5256 87.7563 42.1091C86.6794 42.2775 85.8571 43.2095 85.8571 44.3334C85.8571 45.375 86.5659 46.2483 87.5253 46.5068C87.7133 46.5577 87.9091 46.5851 88.1088 46.5851C88.9272 46.5851 89.6439 46.1465 90.0355 45.4964C90.3487 45.6609 90.7051 45.7549 91.085 45.7549C91.4648 45.7549 91.8212 45.6609 92.1344 45.4964C92.53 46.1504 93.2466 46.5851 94.0651 46.5851C94.2687 46.5851 94.4645 46.5577 94.6485 46.5068C95.608 46.2483 96.3168 45.375 96.3168 44.3334C96.3168 43.2095 95.4944 42.2814 94.4175 42.1091H94.4214Z" fill="#032F3C"/>
<path d="M29.6902 79.9826H26.7375V84.1492H29.6902V79.9826Z" fill="#0397D6"/>
<path d="M28.2099 80.5268C30.762 80.5268 32.8308 78.458 32.8308 75.9059C32.8308 73.3539 30.762 71.285 28.2099 71.285C25.6578 71.285 23.589 73.3539 23.589 75.9059C23.589 78.458 25.6578 80.5268 28.2099 80.5268Z" fill="#0397D6"/>
<path d="M29.1302 81.361L28.2138 83.4835L27.2975 81.361C23.4206 81.8153 20.4092 85.1125 20.4092 89.1108H36.0224C36.0224 85.1086 33.011 81.8153 29.1341 81.361H29.1302Z" fill="#032F3C"/>
<path d="M31.5425 70.8386C31.1235 70.2551 30.5596 69.7852 29.8978 69.4876C29.7999 69.4445 29.702 69.4014 29.6002 69.3662C29.3691 69.2839 29.1263 69.2213 28.8796 69.1782C28.6603 69.1429 28.4371 69.1234 28.21 69.1234C27.9828 69.1234 27.7596 69.1429 27.5403 69.1782C27.2897 69.2174 27.0508 69.2839 26.8198 69.3662C26.718 69.4014 26.6201 69.4445 26.5222 69.4876C25.8604 69.7852 25.2964 70.2551 24.8774 70.8386C23.8005 71.007 22.9781 71.939 22.9781 73.0629C22.9781 74.1046 23.687 74.9778 24.6464 75.2363C24.8344 75.2872 25.0301 75.3146 25.2299 75.3146C26.0483 75.3146 26.765 74.876 27.1566 74.226C27.4698 74.3904 27.8262 74.4844 28.206 74.4844C28.5859 74.4844 28.9423 74.3904 29.2555 74.226C29.6511 74.8799 30.3677 75.3146 31.1862 75.3146C31.3898 75.3146 31.5856 75.2872 31.7696 75.2363C32.7291 74.9778 33.4379 74.1046 33.4379 73.0629C33.4379 71.939 32.6155 71.0109 31.5386 70.8386H31.5425Z" fill="#032F3C"/>
<path d="M92.5691 22.7129H89.6165V26.8795H92.5691V22.7129Z" fill="#F2A057"/>
<path d="M91.0888 23.2572C93.6409 23.2572 95.7097 21.1884 95.7097 18.6363C95.7097 16.0843 93.6409 14.0154 91.0888 14.0154C88.5367 14.0154 86.4679 16.0843 86.4679 18.6363C86.4679 21.1884 88.5367 23.2572 91.0888 23.2572Z" fill="#F2A057"/>
<path d="M92.0091 24.0913L91.0927 26.2138L90.1764 24.0913C86.2995 24.5456 83.2881 27.8429 83.2881 31.8411H98.9013C98.9013 27.839 95.8899 24.5456 92.013 24.0913H92.0091Z" fill="#0397D6"/>
<path d="M94.4214 13.5729C94.0024 12.9894 93.4385 12.5195 92.7767 12.2219C92.6788 12.1788 92.5809 12.1357 92.4791 12.1005C92.248 12.0182 92.0052 11.9556 91.7585 11.9125C91.5392 11.8772 91.316 11.8577 91.0889 11.8577C90.8617 11.8577 90.6385 11.8772 90.4192 11.9125C90.1686 11.9517 89.9297 12.0182 89.6987 12.1005C89.5969 12.1357 89.499 12.1788 89.4011 12.2219C88.7393 12.5195 88.1753 12.9894 87.7563 13.5729C86.6794 13.7413 85.8571 14.6733 85.8571 15.7972C85.8571 16.8389 86.5659 17.7121 87.5253 17.9706C87.7133 18.0215 87.9091 18.0489 88.1088 18.0489C88.9272 18.0489 89.6439 17.6103 90.0355 16.9602C90.3487 17.1247 90.7051 17.2187 91.085 17.2187C91.4648 17.2187 91.8212 17.1247 92.1344 16.9602C92.53 17.6142 93.2466 18.0489 94.0651 18.0489C94.2687 18.0489 94.4645 18.0215 94.6485 17.9706C95.608 17.7121 96.3168 16.8389 96.3168 15.7972C96.3168 14.6733 95.4944 13.7452 94.4175 13.5729H94.4214Z" fill="#0397D6"/>
<path d="M29.6902 22.7129H26.7375V26.8795H29.6902V22.7129Z" fill="#F2A057"/>
<path d="M28.2099 23.2572C30.762 23.2572 32.8308 21.1884 32.8308 18.6363C32.8308 16.0843 30.762 14.0154 28.2099 14.0154C25.6578 14.0154 23.589 16.0843 23.589 18.6363C23.589 21.1884 25.6578 23.2572 28.2099 23.2572Z" fill="#F2A057"/>
<path d="M29.1302 24.0913L28.2138 26.2138L27.2975 24.0913C23.4206 24.5456 20.4092 27.8429 20.4092 31.8411H36.0224C36.0224 27.839 33.011 24.5456 29.1341 24.0913H29.1302Z" fill="#0397D6"/>
<path d="M31.5425 13.5729C31.1235 12.9894 30.5596 12.5195 29.8978 12.2219C29.7999 12.1788 29.702 12.1357 29.6002 12.1005C29.3691 12.0182 29.1263 11.9556 28.8796 11.9125C28.6603 11.8772 28.4371 11.8577 28.21 11.8577C27.9828 11.8577 27.7596 11.8772 27.5403 11.9125C27.2897 11.9517 27.0508 12.0182 26.8198 12.1005C26.718 12.1357 26.6201 12.1788 26.5222 12.2219C25.8604 12.5195 25.2964 12.9894 24.8774 13.5729C23.8005 13.7413 22.9781 14.6733 22.9781 15.7972C22.9781 16.8389 23.687 17.7121 24.6464 17.9706C24.8344 18.0215 25.0301 18.0489 25.2299 18.0489C26.0483 18.0489 26.765 17.6103 27.1566 16.9602C27.4698 17.1247 27.8262 17.2187 28.206 17.2187C28.5859 17.2187 28.9423 17.1247 29.2555 16.9602C29.6511 17.6142 30.3677 18.0489 31.1862 18.0489C31.3898 18.0489 31.5856 18.0215 31.7696 17.9706C32.7291 17.7121 33.4379 16.8389 33.4379 15.7972C33.4379 14.6733 32.6155 13.7452 31.5386 13.5729H31.5425Z" fill="#0397D6"/>
<path d="M111.989 21.9885C109.827 21.9885 108.065 20.2263 108.065 18.0646C108.065 15.903 109.827 14.1407 111.989 14.1407C114.15 14.1407 115.913 15.903 115.913 18.0646C115.913 20.2263 114.15 21.9885 111.989 21.9885ZM111.989 14.411C109.976 14.411 108.335 16.0479 108.335 18.0646C108.335 20.0814 109.972 21.7183 111.989 21.7183C114.005 21.7183 115.642 20.0814 115.642 18.0646C115.642 16.0479 114.005 14.411 111.989 14.411Z" fill="#0397D6"/>
<path d="M110.99 16.8506V19.2825C110.99 19.5214 111.252 19.6663 111.456 19.537L113.375 18.3231C113.563 18.2056 113.563 17.9275 113.375 17.8101L111.456 16.5961C111.252 16.4669 110.99 16.6118 110.99 16.8506Z" fill="#0397D6"/>
<path d="M120.091 25.1878H103.883C103.651 25.1878 103.464 25.3754 103.464 25.6068C103.464 25.8382 103.651 26.0259 103.883 26.0259H120.091C120.322 26.0259 120.51 25.8382 120.51 25.6068C120.51 25.3754 120.322 25.1878 120.091 25.1878Z" fill="#0397D6"/>
<path d="M120.091 26.8522H103.883C103.651 26.8522 103.464 27.0398 103.464 27.2712C103.464 27.5026 103.651 27.6902 103.883 27.6902H120.091C120.322 27.6902 120.51 27.5026 120.51 27.2712C120.51 27.0398 120.322 26.8522 120.091 26.8522Z" fill="#0397D6"/>
<path d="M120.091 28.5165H103.883C103.651 28.5165 103.464 28.7041 103.464 28.9355C103.464 29.1669 103.651 29.3545 103.883 29.3545H120.091C120.322 29.3545 120.51 29.1669 120.51 28.9355C120.51 28.7041 120.322 28.5165 120.091 28.5165Z" fill="#0397D6"/>
<path d="M49.1098 21.9885C46.9481 21.9885 45.1859 20.2263 45.1859 18.0646C45.1859 15.903 46.9481 14.1407 49.1098 14.1407C51.2714 14.1407 53.0336 15.903 53.0336 18.0646C53.0336 20.2263 51.2714 21.9885 49.1098 21.9885ZM49.1098 14.411C47.0969 14.411 45.4561 16.0479 45.4561 18.0646C45.4561 20.0814 47.093 21.7183 49.1098 21.7183C51.1265 21.7183 52.7634 20.0814 52.7634 18.0646C52.7634 16.0479 51.1265 14.411 49.1098 14.411Z" fill="#0397D6"/>
<path d="M48.1112 16.8506V19.2825C48.1112 19.5214 48.3736 19.6663 48.5772 19.537L50.4961 18.3231C50.684 18.2056 50.684 17.9275 50.4961 17.8101L48.5772 16.5961C48.3736 16.4669 48.1112 16.6118 48.1112 16.8506Z" fill="#0397D6"/>
<path d="M57.212 25.1878H41.0036C40.7722 25.1878 40.5846 25.3754 40.5846 25.6068C40.5846 25.8382 40.7722 26.0259 41.0036 26.0259H57.212C57.4435 26.0259 57.6311 25.8382 57.6311 25.6068C57.6311 25.3754 57.4435 25.1878 57.212 25.1878Z" fill="#0397D6"/>
<path d="M57.212 26.8522H41.0036C40.7722 26.8522 40.5846 27.0398 40.5846 27.2712C40.5846 27.5026 40.7722 27.6902 41.0036 27.6902H57.212C57.4435 27.6902 57.6311 27.5026 57.6311 27.2712C57.6311 27.0398 57.4435 26.8522 57.212 26.8522Z" fill="#0397D6"/>
<path d="M57.212 28.5165H41.0036C40.7722 28.5165 40.5846 28.7041 40.5846 28.9355C40.5846 29.1669 40.7722 29.3545 41.0036 29.3545H57.212C57.4435 29.3545 57.6311 29.1669 57.6311 28.9355C57.6311 28.7041 57.4435 28.5165 57.212 28.5165Z" fill="#0397D6"/>
<path d="M111.989 48.7428C109.827 48.7428 108.065 46.9806 108.065 44.819C108.065 42.6573 109.827 40.8951 111.989 40.8951C114.15 40.8951 115.913 42.6573 115.913 44.819C115.913 46.9806 114.15 48.7428 111.989 48.7428ZM111.989 41.1653C109.976 41.1653 108.335 42.8022 108.335 44.819C108.335 46.8357 109.972 48.4726 111.989 48.4726C114.005 48.4726 115.642 46.8357 115.642 44.819C115.642 42.8022 114.005 41.1653 111.989 41.1653Z" fill="#032F3C"/>
<path d="M110.99 43.6012V46.033C110.99 46.2719 111.252 46.4168 111.456 46.2876L113.375 45.0736C113.563 44.9561 113.563 44.6781 113.375 44.5606L111.456 43.3466C111.252 43.2174 110.99 43.3623 110.99 43.6012Z" fill="#032F3C"/>
<path d="M120.091 51.9423H103.883C103.651 51.9423 103.464 52.1299 103.464 52.3613C103.464 52.5927 103.651 52.7803 103.883 52.7803H120.091C120.322 52.7803 120.51 52.5927 120.51 52.3613C120.51 52.1299 120.322 51.9423 120.091 51.9423Z" fill="#032F3C"/>
<path d="M120.091 53.6066H103.883C103.651 53.6066 103.464 53.7942 103.464 54.0256C103.464 54.257 103.651 54.4446 103.883 54.4446H120.091C120.322 54.4446 120.51 54.257 120.51 54.0256C120.51 53.7942 120.322 53.6066 120.091 53.6066Z" fill="#032F3C"/>
<path d="M120.091 55.267H103.883C103.651 55.267 103.464 55.4546 103.464 55.686C103.464 55.9174 103.651 56.105 103.883 56.105H120.091C120.322 56.105 120.51 55.9174 120.51 55.686C120.51 55.4546 120.322 55.267 120.091 55.267Z" fill="#032F3C"/>
<path d="M49.1098 77.4724C46.9481 77.4724 45.1859 75.7102 45.1859 73.5485C45.1859 71.3869 46.9481 69.6246 49.1098 69.6246C51.2714 69.6246 53.0336 71.3869 53.0336 73.5485C53.0336 75.7102 51.2714 77.4724 49.1098 77.4724ZM49.1098 69.8949C47.0969 69.8949 45.4561 71.5318 45.4561 73.5485C45.4561 75.5653 47.093 77.2022 49.1098 77.2022C51.1265 77.2022 52.7634 75.5653 52.7634 73.5485C52.7634 71.5318 51.1265 69.8949 49.1098 69.8949Z" fill="#032F3C"/>
<path d="M48.1112 72.3307V74.7625C48.1112 75.0014 48.3736 75.1463 48.5772 75.0171L50.4961 73.8031C50.684 73.6856 50.684 73.4076 50.4961 73.2901L48.5772 72.0761C48.3736 71.9469 48.1112 72.0918 48.1112 72.3307Z" fill="#032F3C"/>
<path d="M57.212 80.6718H41.0036C40.7722 80.6718 40.5846 80.8594 40.5846 81.0908C40.5846 81.3222 40.7722 81.5098 41.0036 81.5098H57.212C57.4435 81.5098 57.6311 81.3222 57.6311 81.0908C57.6311 80.8594 57.4435 80.6718 57.212 80.6718Z" fill="#032F3C"/>
<path d="M57.212 82.3361H41.0036C40.7722 82.3361 40.5846 82.5237 40.5846 82.7551C40.5846 82.9865 40.7722 83.1741 41.0036 83.1741H57.212C57.4435 83.1741 57.6311 82.9865 57.6311 82.7551C57.6311 82.5237 57.4435 82.3361 57.212 82.3361Z" fill="#032F3C"/>
<path d="M57.212 83.9965H41.0036C40.7722 83.9965 40.5846 84.1841 40.5846 84.4155C40.5846 84.6469 40.7722 84.8345 41.0036 84.8345H57.212C57.4435 84.8345 57.6311 84.6469 57.6311 84.4155C57.6311 84.1841 57.4435 83.9965 57.212 83.9965Z" fill="#032F3C"/>
<path d="M111.989 77.0322C109.827 77.0322 108.065 75.2699 108.065 73.1083C108.065 70.9467 109.827 69.1844 111.989 69.1844C114.15 69.1844 115.913 70.9467 115.913 73.1083C115.913 75.2699 114.15 77.0322 111.989 77.0322ZM111.989 69.4546C109.976 69.4546 108.335 71.0915 108.335 73.1083C108.335 75.1251 109.972 76.762 111.989 76.762C114.005 76.762 115.642 75.1251 115.642 73.1083C115.642 71.0915 114.005 69.4546 111.989 69.4546Z" fill="#0397D6"/>
<path d="M110.99 71.8904V74.3222C110.99 74.5611 111.252 74.706 111.456 74.5768L113.375 73.3628C113.563 73.2453 113.563 72.9673 113.375 72.8498L111.456 71.6358C111.252 71.5066 110.99 71.6515 110.99 71.8904Z" fill="#0397D6"/>
<path d="M120.091 80.2316H103.883C103.651 80.2316 103.464 80.4192 103.464 80.6506C103.464 80.882 103.651 81.0696 103.883 81.0696H120.091C120.322 81.0696 120.51 80.882 120.51 80.6506C120.51 80.4192 120.322 80.2316 120.091 80.2316Z" fill="#0397D6"/>
<path d="M120.091 81.8919H103.883C103.651 81.8919 103.464 82.0795 103.464 82.311C103.464 82.5424 103.651 82.73 103.883 82.73H120.091C120.322 82.73 120.51 82.5424 120.51 82.311C120.51 82.0795 120.322 81.8919 120.091 81.8919Z" fill="#0397D6"/>
<path d="M120.091 83.5562H103.883C103.651 83.5562 103.464 83.7438 103.464 83.9752C103.464 84.2066 103.651 84.3942 103.883 84.3942H120.091C120.322 84.3942 120.51 84.2066 120.51 83.9752C120.51 83.7438 120.322 83.5562 120.091 83.5562Z" fill="#0397D6"/>
<path d="M49.1098 48.5092C46.9481 48.5092 45.1859 46.747 45.1859 44.5854C45.1859 42.4237 46.9481 40.6615 49.1098 40.6615C51.2714 40.6615 53.0336 42.4237 53.0336 44.5854C53.0336 46.747 51.2714 48.5092 49.1098 48.5092ZM49.1098 40.9317C47.0969 40.9317 45.4561 42.5686 45.4561 44.5854C45.4561 46.6021 47.093 48.239 49.1098 48.239C51.1265 48.239 52.7634 46.6021 52.7634 44.5854C52.7634 42.5686 51.1265 40.9317 49.1098 40.9317Z" fill="#0397D6"/>
<path d="M48.1112 43.3674V45.7993C48.1112 46.0382 48.3736 46.1831 48.5772 46.0538L50.4961 44.8399C50.684 44.7224 50.684 44.4443 50.4961 44.3269L48.5772 43.1129C48.3736 42.9837 48.1112 43.1286 48.1112 43.3674Z" fill="#0397D6"/>
<path d="M57.212 51.7086H41.0036C40.7722 51.7086 40.5846 51.8962 40.5846 52.1277C40.5846 52.3591 40.7722 52.5467 41.0036 52.5467H57.212C57.4435 52.5467 57.6311 52.3591 57.6311 52.1277C57.6311 51.8962 57.4435 51.7086 57.212 51.7086Z" fill="#0397D6"/>
<path d="M57.212 53.369H41.0036C40.7722 53.369 40.5846 53.5566 40.5846 53.788C40.5846 54.0195 40.7722 54.2071 41.0036 54.2071H57.212C57.4435 54.2071 57.6311 54.0195 57.6311 53.788C57.6311 53.5566 57.4435 53.369 57.212 53.369Z" fill="#0397D6"/>
<path d="M57.212 55.0333H41.0036C40.7722 55.0333 40.5846 55.2209 40.5846 55.4523C40.5846 55.6837 40.7722 55.8713 41.0036 55.8713H57.212C57.4435 55.8713 57.6311 55.6837 57.6311 55.4523C57.6311 55.2209 57.4435 55.0333 57.212 55.0333Z" fill="#0397D6"/>
</svg>