<svg xmlns="http://www.w3.org/2000/svg" width="141" height="98" viewBox="0 0 141 98" fill="none">
  <path d="M128.51 0.0268555H11.8396C5.30077 0.0268555 0 5.32762 0 11.8665V86.0301C0 92.5689 5.30077 97.8697 11.8396 97.8697H128.51C135.049 97.8697 140.35 92.5689 140.35 86.0301V11.8665C140.35 5.32762 135.049 0.0268555 128.51 0.0268555Z" fill="#A2B2BF"/>
  <path d="M129.241 2.96011H11.1138C6.47247 2.96011 2.7099 6.72268 2.7099 11.364V86.5427C2.7099 91.184 6.47247 94.9466 11.1138 94.9466H129.241C133.882 94.9466 137.645 91.184 137.645 86.5427V11.364C137.645 6.72268 133.882 2.96011 129.241 2.96011Z" fill="#EDF2F4"/>
  <path d="M12.7479 7.48687H84.1255C86.8913 7.48687 89.1395 9.73502 89.1395 12.5008V67.9383C89.1395 69.3339 88.0078 70.4656 86.6122 70.4656H10.2613C8.8657 70.4656 7.73401 69.3339 7.73401 67.9383V12.5008C7.73401 9.73502 9.98216 7.48687 12.7479 7.48687Z" fill="#A2B2BF"/>
  <path d="M81.0807 11.8715H15.0266C13.2272 11.8715 11.7686 13.3302 11.7686 15.1296V53.064C11.7686 54.8633 13.2272 56.322 15.0266 56.322H81.0807C82.88 56.322 84.3387 54.8633 84.3387 53.064V15.1296C84.3387 13.3302 82.88 11.8715 81.0807 11.8715Z" fill="#032F3C"/>
  <path d="M84.0291 62.828H12.8393C12.4581 62.828 12.1491 63.137 12.1491 63.5181V63.6349C12.1491 64.016 12.4581 64.325 12.8393 64.325H84.0291C84.4103 64.325 84.7193 64.016 84.7193 63.6349V63.5181C84.7193 63.137 84.4103 62.828 84.0291 62.828Z" fill="#EDF2F4"/>
  <path d="M86.6122 73.5916H10.2613C8.8655 73.5916 7.73401 74.7231 7.73401 76.1189V85.9336C7.73401 87.3294 8.8655 88.4609 10.2613 88.4609H86.6122C88.008 88.4609 89.1395 87.3294 89.1395 85.9336V76.1189C89.1395 74.7231 88.008 73.5916 86.6122 73.5916Z" fill="#A2B2BF"/>
  <path d="M129.885 63.8125H96.4979C95.1021 63.8125 93.9706 64.944 93.9706 66.3398V85.9388C93.9706 87.3345 95.1021 88.466 96.4979 88.466H129.885C131.281 88.466 132.413 87.3345 132.413 85.9388V66.3398C132.413 64.944 131.281 63.8125 129.885 63.8125Z" fill="#A2B2BF"/>
  <path d="M129.885 35.6472H96.4979C95.1021 35.6472 93.9706 36.7787 93.9706 38.1744V57.7734C93.9706 59.1692 95.1021 60.3007 96.4979 60.3007H129.885C131.281 60.3007 132.413 59.1692 132.413 57.7734V38.1744C132.413 36.7787 131.281 35.6472 129.885 35.6472Z" fill="#F2A057"/>
  <path d="M129.885 7.48687H96.4979C95.1021 7.48687 93.9706 8.61836 93.9706 10.0141V29.6132C93.9706 31.0089 95.1021 32.1404 96.4979 32.1404H129.885C131.281 32.1404 132.413 31.0089 132.413 29.6132V10.0141C132.413 8.61836 131.281 7.48687 129.885 7.48687Z" fill="#A2B2BF"/>
  <path d="M56.1226 62.828H12.8393C12.4581 62.828 12.1491 63.137 12.1491 63.5181V63.6349C12.1491 64.016 12.4581 64.325 12.8393 64.325H56.1226C56.5037 64.325 56.8127 64.016 56.8127 63.6349V63.5181C56.8127 63.137 56.5037 62.828 56.1226 62.828Z" fill="#032F3C"/>
  <path d="M55.006 65.3806C56.0038 65.3806 56.8127 64.5717 56.8127 63.574C56.8127 62.5762 56.0038 61.7673 55.006 61.7673C54.0083 61.7673 53.1994 62.5762 53.1994 63.574C53.1994 64.5717 54.0083 65.3806 55.006 65.3806Z" fill="#032F3C"/>
  <path d="M54.5291 62.9954V64.1575C54.5291 64.2692 54.656 64.3402 54.7524 64.2793L55.671 63.7008C55.7623 63.645 55.7623 63.513 55.671 63.4572L54.7524 62.8787C54.656 62.8178 54.5291 62.8888 54.5291 63.0005V62.9954Z" fill="#A2B2BF"/>
  <path d="M48.0536 41.4933C43.9734 41.4933 40.6595 38.1744 40.6595 34.0942C40.6595 30.014 43.9785 26.6951 48.0536 26.6951C52.1287 26.6951 55.4527 30.014 55.4527 34.0942C55.4527 38.1744 52.1338 41.4933 48.0536 41.4933ZM48.0536 27.2076C44.2576 27.2076 41.167 30.2982 41.167 34.0942C41.167 37.8902 44.2576 40.9807 48.0536 40.9807C51.8496 40.9807 54.9401 37.8902 54.9401 34.0942C54.9401 30.2982 51.8496 27.2076 48.0536 27.2076Z" fill="#A2B2BF"/>
  <path d="M46.1758 31.8055V36.3881C46.1758 36.8397 46.6732 37.1138 47.0538 36.8702L50.6721 34.5814C51.0274 34.3581 51.0274 33.8405 50.6721 33.6172L47.0538 31.3285C46.6732 31.0899 46.1758 31.3589 46.1758 31.8106V31.8055Z" fill="#A2B2BF"/>
  <path d="M75.686 79.174C76.5521 79.174 77.2542 78.4719 77.2542 77.6058C77.2542 76.7398 76.5521 76.0377 75.686 76.0377C74.82 76.0377 74.1179 76.7398 74.1179 77.6058C74.1179 78.4719 74.82 79.174 75.686 79.174Z" fill="#F2A057"/>
  <path d="M80.2432 79.1739C81.1092 79.1739 81.8113 78.4718 81.8113 77.6058C81.8113 76.7397 81.1092 76.0377 80.2432 76.0377C79.3771 76.0377 78.675 76.7397 78.675 77.6058C78.675 78.4718 79.3771 79.1739 80.2432 79.1739Z" fill="#0397D6"/>
  <path d="M84.7952 79.1739C85.6613 79.1739 86.3634 78.4718 86.3634 77.6058C86.3634 76.7397 85.6613 76.0377 84.7952 76.0377C83.9292 76.0377 83.2271 76.7397 83.2271 77.6058C83.2271 78.4718 83.9292 79.1739 84.7952 79.1739Z" fill="#032F3C"/>
</svg>