<svg xmlns="http://www.w3.org/2000/svg" width="198" height="95" viewBox="0 0 198 95" fill="none">
  <path d="M91.8559 73.9281C92.5248 73.3996 93.1737 72.831 93.8025 72.2223C98.7123 67.4997 101.167 61.7738 101.167 55.0579C101.167 48.3419 98.7458 42.7564 93.8961 38.0138C89.0465 33.2712 83.2336 30.9032 76.4574 30.9032C75.8153 30.9032 75.1798 30.93 74.551 30.9634H24.4824V57.7268C24.4824 60.4226 23.372 61.7671 21.1579 61.7671C18.9438 61.7671 17.7866 60.4226 17.7866 57.7268V30.9634H0V55.9676C0 62.7839 1.59872 68.1018 4.80284 71.9414C8.92338 76.8512 14.355 79.3129 21.1044 79.3129C27.031 79.3129 32.0412 77.1991 36.1283 72.9648C40.2154 68.7372 42.2623 63.5464 42.2623 57.3991V36.3482H60.002C59.3933 36.8298 58.8047 37.3315 58.2294 37.8733C53.3061 42.5223 50.8378 48.2483 50.8378 55.0579C50.8378 61.8675 53.2994 67.4529 58.2294 72.1956C63.1526 76.9382 69.0859 79.3062 76.0293 79.3062C76.1832 79.3062 76.3303 79.2995 76.4775 79.2995H112.091V73.9281H91.8559ZM80.899 60.048C79.5411 61.4193 77.9023 62.1016 75.9825 62.1016C74.0627 62.1016 72.4707 61.4193 71.1128 60.048C69.7549 58.6834 69.0726 57.0312 69.0726 55.1047C69.0726 53.1782 69.7415 51.4925 71.086 50.1413C72.4305 48.7901 74.0627 48.1145 75.9825 48.1145C77.9023 48.1145 79.5813 48.7901 80.9258 50.1413C82.2703 51.4925 82.9392 53.1514 82.9392 55.1047C82.9392 57.0579 82.2569 58.6834 80.899 60.048Z" fill="#3A4267"/>
  <path d="M17.9605 14.4143H0V24.6555H17.9605V14.4143Z" fill="#3A4267"/>
  <path d="M71.0057 8.60813C70.5375 4.70833 73.347 1.1363 77.1264 0.688127C81.0261 0.219884 84.5982 3.02934 85.0597 6.92914C85.6684 12.0062 82.8456 13.4243 67.5073 20.4145L66.8718 15.0966L72.6714 12.4812C71.7014 11.3975 71.1797 10.0262 71.0057 8.60813ZM78.2568 10.1333L78.6113 10.0931C79.909 9.93927 80.491 8.78873 80.3372 7.49103C80.1967 6.30705 79.1064 5.24346 77.6949 5.41069C75.9357 5.73846 75.6681 6.49434 75.628 8.17333C75.7952 9.59144 77.1999 10.2604 78.2568 10.1333Z" fill="#3A4267"/>
  <path d="M157.136 52.7969L181.25 94.2431H0.0201416V89.6008H158.942L139.476 57.0579C134.948 49.4858 137.256 39.6861 144.687 34.9301L198 0.594482V19.1369L159.33 43.82C156.306 45.7331 155.336 49.6998 157.136 52.7969ZM109.281 14.4143V79.3062H128.58V14.4143H109.281Z" fill="#0092D4"/>
</svg>