<svg xmlns="http://www.w3.org/2000/svg" width="231.954" height="48.456" viewBox="0 0 231.954 48.456">
  <g id="Group_9104" data-name="Group 9104" transform="translate(-1037 -41)">
    <g id="Group_1727" data-name="Group 1727" transform="translate(1037 41.959)">
      <g id="Group_1726" data-name="Group 1726" transform="translate(0 0)">
        <g id="Group_81" data-name="Group 81">
          <g id="Untitled" transform="translate(0 0)">
            <g id="Group_9081" data-name="Group 9081" transform="translate(0 -0.959)">
              <ellipse id="Ellipse_3" data-name="Ellipse 3" cx="3.184" cy="3.184" rx="3.184" ry="3.184" transform="translate(21.043 42.088)" fill="#0397d6"/>
              <ellipse id="Ellipse_4" data-name="Ellipse 4" cx="3.184" cy="3.184" rx="3.184" ry="3.184" transform="translate(21.043)" fill="#0397d6"/>
              <path id="Path_35" data-name="Path 35" d="M59.547,54.445h4.685a3.184,3.184,0,0,0,0-6.368H59.547l9.406-9.424a3.2,3.2,0,0,0,0-4.52h0a3.2,3.2,0,0,0-4.52,0l-9.406,9.406V38.873a3.184,3.184,0,1,0-6.368,0v4.685l-9.406-9.406a3.2,3.2,0,0,0-4.52,0h0a3.2,3.2,0,0,0,0,4.52l9.406,9.406H39.473a3.184,3.184,0,0,0,0,6.368h4.685l-9.406,9.387a3.2,3.2,0,0,0,0,4.52h0a3.2,3.2,0,0,0,4.52,0l9.406-9.406v4.685a3.184,3.184,0,1,0,6.368,0V58.947l9.406,9.406a3.2,3.2,0,0,0,4.52,0h0a3.2,3.2,0,0,0,0-4.52Zm-7.7,0a3.184,3.184,0,1,1,3.184-3.184A3.186,3.186,0,0,1,51.843,54.445Z" transform="translate(-27.614 -27.125)" fill="#032f3c"/>
              <ellipse id="Ellipse_5" data-name="Ellipse 5" cx="3.184" cy="3.184" rx="3.184" ry="3.184" transform="translate(0 21.044)" fill="#0397d6"/>
              <ellipse id="Ellipse_6" data-name="Ellipse 6" cx="3.184" cy="3.184" rx="3.184" ry="3.184" transform="translate(42.089 21.044)" fill="#0397d6"/>
            </g>
            <g id="Group_9082" data-name="Group 9082" transform="translate(57.641 11.04)">
              <path id="Path_36" data-name="Path 36" d="M315,89.977a6.741,6.741,0,0,0,1.789-.183,1.277,1.277,0,0,0,.8-.734,5.36,5.36,0,0,0,.229-1.766V71.4h2.614l.023,16.146a6.266,6.266,0,0,1-.6,3.073,2.717,2.717,0,0,1-1.72,1.33,12.322,12.322,0,0,1-3.142.321Z" transform="translate(-315 -69.354)" fill="#6a747c" stroke="#6a747c" stroke-linecap="round" stroke-width="0.5"/>
              <path id="Path_37" data-name="Path 37" d="M357.419,88.708a5.73,5.73,0,0,1-2.385-3.119,17.471,17.471,0,0,1-.734-5.55,17.928,17.928,0,0,1,.734-5.573,5.791,5.791,0,0,1,2.385-3.211,10.006,10.006,0,0,1,8.944,0,5.872,5.872,0,0,1,2.385,3.211,17.938,17.938,0,0,1,.734,5.619,17.391,17.391,0,0,1-.711,5.527,5.7,5.7,0,0,1-2.362,3.119,8.511,8.511,0,0,1-4.518,1.009A8.891,8.891,0,0,1,357.419,88.708Zm7.476-2.064a3.94,3.94,0,0,0,1.468-2.293,17.475,17.475,0,0,0,.436-4.289,17.115,17.115,0,0,0-.436-4.358,4.385,4.385,0,0,0-1.491-2.431,5.915,5.915,0,0,0-5.871,0,4.159,4.159,0,0,0-1.491,2.408,17,17,0,0,0-.436,4.358,16.146,16.146,0,0,0,.436,4.243,4.062,4.062,0,0,0,1.468,2.339,5.017,5.017,0,0,0,2.981.78A5.378,5.378,0,0,0,364.9,86.644Z" transform="translate(-345.286 -68.152)" fill="#6a747c" stroke="#6a747c" stroke-linecap="round" stroke-width="0.5"/>
              <path id="Path_38" data-name="Path 38" d="M462.4,68.5h1v33.938h-1Z" transform="translate(-430.592 -72.682)" fill="#0397d6"/>
              <path id="Path_39" data-name="Path 39" d="M522.867,85.918h-7.66l-1.193,4.426H511.4L516.308,71.4h5.458l4.908,18.944h-2.614Zm-7.109-2.339h6.559l-2.569-9.931h-1.422Z" transform="translate(-470.98 -68.33)" fill="#6a747c" stroke="#6a747c" stroke-linecap="round" stroke-width="0.5"/>
              <path id="Path_40" data-name="Path 40" d="M588.652,88.462A5.53,5.53,0,0,1,586.5,85.3a20.744,20.744,0,0,1-.6-5.481,21.649,21.649,0,0,1,.6-5.619,5.617,5.617,0,0,1,2.133-3.142A7.652,7.652,0,0,1,592.963,70a25.248,25.248,0,0,1,5.275.665l-.092,2.179a25.912,25.912,0,0,0-4.679-.459,5.542,5.542,0,0,0-3.119.734,3.649,3.649,0,0,0-1.4,2.362,22.855,22.855,0,0,0-.321,4.7,18.683,18.683,0,0,0,.344,4.105,3.478,3.478,0,0,0,1.4,2.179,5.812,5.812,0,0,0,3.234.734,29.068,29.068,0,0,0,4.541-.459l.092,2.225a25.921,25.921,0,0,1-5.091.6A7.743,7.743,0,0,1,588.652,88.462Z" transform="translate(-524.943 -67.953)" fill="#6a747c" stroke="#6a747c" stroke-linecap="round" stroke-width="0.5"/>
              <path id="Path_41" data-name="Path 41" d="M658.567,85.918h-7.66l-1.192,4.426H647.1L652.007,71.4h5.458l4.908,18.944h-2.615Zm-7.109-2.339h6.559l-2.568-9.931h-1.422Z" transform="translate(-568.541 -68.33)" fill="#6a747c" stroke="#6a747c" stroke-linecap="round" stroke-width="0.5"/>
              <path id="Path_42" data-name="Path 42" d="M737.391,72.57a5.881,5.881,0,0,1,2.179,3.1,16.823,16.823,0,0,1,.573,4.793,18.413,18.413,0,0,1-.734,5.688,6,6,0,0,1-2.339,3.188,7.7,7.7,0,0,1-4.243,1.009H726.2V71.4h6.628A7.67,7.67,0,0,1,737.391,72.57Zm-1.032,13.623a11.654,11.654,0,0,0,1.078-5.688,14.2,14.2,0,0,0-.459-3.945,3.824,3.824,0,0,0-1.468-2.179,4.731,4.731,0,0,0-2.706-.688h-3.99V88h3.99A3.723,3.723,0,0,0,736.359,86.193Z" transform="translate(-627.103 -68.33)" fill="#6a747c" stroke="#6a747c" stroke-linecap="round" stroke-width="0.5"/>
              <path id="Path_43" data-name="Path 43" d="M805.937,73.716v5.894h7.431V81.9h-7.431v6.147h9.082v2.293H803.3V71.4h11.719v2.316Z" transform="translate(-684.996 -68.33)" fill="#6a747c" stroke="#6a747c" stroke-linecap="round" stroke-width="0.5"/>
              <path id="Path_44" data-name="Path 44" d="M888.459,71.4V90.344h-2.637V74.267h-.413l-4.931,15.32h-2.8l-4.954-15.32h-.39V90.344H869.7V71.4h4.633l4.77,15.435L883.827,71.4Z" transform="translate(-734.414 -68.33)" fill="#6a747c" stroke="#6a747c" stroke-linecap="round" stroke-width="0.5"/>
              <path id="Path_45" data-name="Path 45" d="M968.163,82.555,962.2,71.5h2.935l4.358,8.44L973.8,71.5h2.981l-5.963,11.055v7.867h-2.637V82.555Z" transform="translate(-802.891 -68.43)" fill="#6a747c" stroke="#6a747c" stroke-linecap="round" stroke-width="0.5"/>
            </g>
          </g>
        </g>
      </g>
    </g>
  </g>
</svg>