<svg xmlns="http://www.w3.org/2000/svg" width="110" height="25" viewBox="0 0 162 38" fill="none">
<path d="M0.958711 29.16C0.958711 28.7 0.998711 28.16 1.07871 27.54C1.15871 26.92 1.30871 26.22 1.52871 25.44C1.74871 24.64 2.07871 23.75 2.51871 22.77L6.20871 24.06C5.98871 24.68 5.79871 25.25 5.63871 25.77C5.47871 26.27 5.35871 26.74 5.27871 27.18C5.19871 27.6 5.15871 28.02 5.15871 28.44C5.15871 29.42 5.37871 30.22 5.81871 30.84C6.27871 31.48 6.91871 31.95 7.73871 32.25C8.55871 32.57 9.50871 32.73 10.5887 32.73C11.8287 32.73 12.8487 32.56 13.6487 32.22C14.4487 31.9 15.0687 31.47 15.5087 30.93C15.9487 30.41 16.2587 29.84 16.4387 29.22C16.6187 28.58 16.7087 27.96 16.7087 27.36C16.7087 26.54 16.5687 25.57 16.2887 24.45C16.0087 23.31 15.5087 22.03 14.7887 20.61L18.6587 18.96C19.0587 19.66 19.4287 20.48 19.7687 21.42C20.1087 22.34 20.3787 23.3 20.5787 24.3C20.7987 25.3 20.9087 26.25 20.9087 27.15C20.9087 27.95 20.8087 28.8 20.6087 29.7C20.4087 30.58 20.0687 31.45 19.5887 32.31C19.1287 33.17 18.4987 33.94 17.6987 34.62C16.8987 35.32 15.9087 35.88 14.7287 36.3C13.5487 36.72 12.1387 36.93 10.4987 36.93C9.17871 36.93 7.93871 36.78 6.77871 36.48C5.63871 36.2 4.62871 35.75 3.74871 35.13C2.88871 34.51 2.20871 33.7 1.70871 32.7C1.20871 31.72 0.958711 30.54 0.958711 29.16ZM10.7387 17.76C10.1187 17.76 9.58871 17.55 9.14871 17.13C8.72871 16.71 8.51871 16.19 8.51871 15.57C8.51871 14.95 8.72871 14.42 9.14871 13.98C9.58871 13.54 10.1187 13.32 10.7387 13.32C11.3387 13.32 11.8487 13.54 12.2687 13.98C12.7087 14.42 12.9287 14.95 12.9287 15.57C12.9287 16.19 12.7087 16.71 12.2687 17.13C11.8487 17.55 11.3387 17.76 10.7387 17.76ZM24.125 36.9L23.255 32.7C24.675 32.52 25.915 32.3 26.975 32.04C28.035 31.8 28.925 31.46 29.645 31.02C30.365 30.58 30.905 29.98 31.265 29.22C31.625 28.44 31.805 27.44 31.805 26.22C31.805 25.04 31.625 24.1 31.265 23.4C30.905 22.7 30.425 22.35 29.825 22.35C29.405 22.35 29.055 22.5 28.775 22.8C28.495 23.08 28.285 23.42 28.145 23.82C28.025 24.2 27.965 24.54 27.965 24.84C27.965 25.02 28.015 25.21 28.115 25.41C28.215 25.61 28.435 25.78 28.775 25.92C29.115 26.06 29.645 26.14 30.365 26.16C31.105 26.18 32.105 26.11 33.365 25.95H38.405C39.165 25.95 39.705 26.15 40.025 26.55C40.365 26.93 40.535 27.41 40.535 27.99C40.535 28.61 40.325 29.13 39.905 29.55C39.485 29.95 38.885 30.15 38.105 30.15H29.855C28.595 30.15 27.515 30 26.615 29.7C25.715 29.4 25.025 28.92 24.545 28.26C24.065 27.58 23.825 26.68 23.825 25.56C23.825 24.66 23.975 23.76 24.275 22.86C24.595 21.96 25.035 21.14 25.595 20.4C26.155 19.64 26.805 19.04 27.545 18.6C28.305 18.14 29.125 17.91 30.005 17.91C31.205 17.91 32.255 18.28 33.155 19.02C34.055 19.76 34.755 20.74 35.255 21.96C35.775 23.18 36.035 24.51 36.035 25.95C36.035 28.21 35.555 30.13 34.595 31.71C33.635 33.29 32.265 34.51 30.485 35.37C28.705 36.25 26.585 36.76 24.125 36.9ZM38.1475 30.15L38.4475 25.95C39.1675 25.95 39.7875 25.88 40.3075 25.74C40.8275 25.6 41.2675 25.32 41.6275 24.9C41.9875 24.46 42.2875 23.82 42.5275 22.98C42.7875 22.14 43.0175 21.02 43.2175 19.62L47.1475 20.28C47.1075 20.58 47.0475 20.93 46.9675 21.33C46.9075 21.73 46.8475 22.14 46.7875 22.56C46.7475 22.96 46.7275 23.34 46.7275 23.7C46.7275 24.06 46.7975 24.38 46.9375 24.66C47.0775 24.94 47.2975 25.18 47.5975 25.38C47.9175 25.56 48.3275 25.7 48.8275 25.8C49.3475 25.9 49.9775 25.95 50.7175 25.95C51.4775 25.95 52.0175 26.15 52.3375 26.55C52.6575 26.93 52.8175 27.41 52.8175 27.99C52.8175 28.61 52.6075 29.13 52.1875 29.55C51.7875 29.95 51.1975 30.15 50.4175 30.15C49.5175 30.15 48.6975 30.08 47.9575 29.94C47.2375 29.8 46.6075 29.57 46.0675 29.25C45.5475 28.91 45.1175 28.47 44.7775 27.93C44.4575 27.37 44.2575 26.69 44.1775 25.89H45.6175C45.2575 26.85 44.7975 27.62 44.2375 28.2C43.6975 28.76 43.0875 29.18 42.4075 29.46C41.7275 29.74 41.0175 29.92 40.2775 30C39.5575 30.1 38.8475 30.15 38.1475 30.15ZM46.5175 37.11C45.9375 37.11 45.4375 36.9 45.0175 36.48C44.6175 36.08 44.4175 35.6 44.4175 35.04C44.4175 34.46 44.6175 33.96 45.0175 33.54C45.4375 33.12 45.9375 32.91 46.5175 32.91C47.0775 32.91 47.5575 33.12 47.9575 33.54C48.3575 33.96 48.5575 34.46 48.5575 35.04C48.5575 35.6 48.3575 36.08 47.9575 36.48C47.5575 36.9 47.0775 37.11 46.5175 37.11ZM41.3275 37.11C40.7475 37.11 40.2475 36.9 39.8275 36.48C39.4275 36.08 39.2275 35.6 39.2275 35.04C39.2275 34.46 39.4275 33.96 39.8275 33.54C40.2475 33.12 40.7475 32.91 41.3275 32.91C41.8875 32.91 42.3675 33.12 42.7675 33.54C43.1675 33.96 43.3675 34.46 43.3675 35.04C43.3675 35.6 43.1675 36.08 42.7675 36.48C42.3675 36.9 41.8875 37.11 41.3275 37.11ZM50.4229 30.15L50.7229 25.95C51.6629 25.95 52.3229 25.86 52.7029 25.68C53.1029 25.48 53.3429 25.12 53.4229 24.6C53.5029 24.06 53.5229 23.28 53.4829 22.26L53.0029 8.04H57.2629L57.7729 22.23C57.8129 23.23 57.9329 24 58.1329 24.54C58.3329 25.08 58.6629 25.45 59.1229 25.65C59.6029 25.85 60.2429 25.95 61.0429 25.95C61.8029 25.95 62.3429 26.15 62.6629 26.55C62.9829 26.93 63.1429 27.41 63.1429 27.99C63.1429 28.61 62.9329 29.13 62.5129 29.55C62.0929 29.95 61.5029 30.15 60.7429 30.15C59.8629 30.15 59.0429 30.05 58.2829 29.85C57.5229 29.65 56.8929 29.27 56.3929 28.71C55.8929 28.15 55.5629 27.34 55.4029 26.28L56.7229 26.31C56.3829 27.35 55.9429 28.15 55.4029 28.71C54.8629 29.25 54.1829 29.63 53.3629 29.85C52.5629 30.05 51.5829 30.15 50.4229 30.15ZM60.7354 30.15L61.0354 25.95C61.4954 25.95 61.8854 25.84 62.2054 25.62C62.5454 25.38 62.8954 24.99 63.2554 24.45C63.6154 23.89 64.0354 23.14 64.5154 22.2C65.1154 21 65.7354 20.06 66.3754 19.38C67.0354 18.7 67.7054 18.22 68.3854 17.94C69.0854 17.64 69.7854 17.49 70.4854 17.49C71.3654 17.49 72.1854 17.68 72.9454 18.06C73.7054 18.44 74.3654 18.96 74.9254 19.62C75.4854 20.26 75.9154 21 76.2154 21.84C76.5354 22.66 76.6954 23.51 76.6954 24.39C76.6954 25.45 76.4654 26.41 76.0054 27.27C75.5654 28.11 74.9454 28.78 74.1454 29.28C73.3654 29.76 72.4654 30 71.4454 30C70.5854 30 69.5854 29.85 68.4454 29.55C67.3054 29.25 66.1054 28.62 64.8454 27.66L66.3754 24.03C67.2754 24.65 68.1154 25.1 68.8954 25.38C69.6954 25.66 70.3554 25.8 70.8754 25.8C71.2754 25.8 71.6054 25.76 71.8654 25.68C72.1254 25.6 72.3154 25.47 72.4354 25.29C72.5554 25.11 72.6154 24.87 72.6154 24.57C72.6154 24.15 72.5154 23.72 72.3154 23.28C72.1154 22.84 71.8454 22.47 71.5054 22.17C71.1854 21.85 70.8054 21.69 70.3654 21.69C69.9454 21.69 69.5854 21.85 69.2854 22.17C69.0054 22.47 68.7254 22.91 68.4454 23.49C68.1854 24.05 67.8654 24.71 67.4854 25.47C67.0254 26.39 66.5754 27.16 66.1354 27.78C65.6954 28.38 65.2254 28.86 64.7254 29.22C64.2454 29.56 63.6754 29.8 63.0154 29.94C62.3754 30.08 61.6154 30.15 60.7354 30.15ZM90.6044 7.16V0.799999H101.684V30H94.5644V7.16H90.6044ZM110.243 30.32C109.043 30.32 108.057 29.9733 107.283 29.28C106.537 28.56 106.163 27.68 106.163 26.64C106.163 25.5733 106.537 24.68 107.283 23.96C108.057 23.24 109.043 22.88 110.243 22.88C111.417 22.88 112.377 23.24 113.123 23.96C113.897 24.68 114.283 25.5733 114.283 26.64C114.283 27.68 113.897 28.56 113.123 29.28C112.377 29.9733 111.417 30.32 110.243 30.32ZM117.413 24.52C118.319 23.8 118.733 23.4667 118.653 23.52C121.266 21.36 123.319 19.5867 124.813 18.2C126.333 16.8133 127.613 15.36 128.653 13.84C129.693 12.32 130.213 10.84 130.213 9.4C130.213 8.30666 129.959 7.45333 129.453 6.84C128.946 6.22666 128.186 5.92 127.173 5.92C126.159 5.92 125.359 6.30666 124.773 7.08C124.213 7.82667 123.933 8.89333 123.933 10.28H117.333C117.386 8.01333 117.866 6.12 118.773 4.6C119.706 3.08 120.919 1.96 122.413 1.24C123.933 0.519998 125.613 0.159998 127.453 0.159998C130.626 0.159998 133.013 0.973331 134.613 2.6C136.239 4.22667 137.053 6.34667 137.053 8.96C137.053 11.8133 136.079 14.4667 134.133 16.92C132.186 19.3467 129.706 21.72 126.693 24.04H137.493V29.6H117.413V24.52ZM161.464 19.08H154.504V26.2H148.024V19.08H141.064V12.96H148.024V5.8H154.504V12.96H161.464V19.08Z" fill="#0397D6"/>
</svg>