<svg xmlns="http://www.w3.org/2000/svg" width="110" height="25" viewBox="0 0 164 38" fill="none">
<path d="M0.150117 29.16C0.150117 28.7 0.190117 28.16 0.270117 27.54C0.350117 26.92 0.500117 26.22 0.720117 25.44C0.940117 24.64 1.27012 23.75 1.71012 22.77L5.40012 24.06C5.18012 24.68 4.99012 25.25 4.83012 25.77C4.67012 26.27 4.55012 26.74 4.47012 27.18C4.39012 27.6 4.35012 28.02 4.35012 28.44C4.35012 29.42 4.57012 30.22 5.01012 30.84C5.47012 31.48 6.11012 31.95 6.93012 32.25C7.75012 32.57 8.70012 32.73 9.78012 32.73C11.0201 32.73 12.0401 32.56 12.8401 32.22C13.6401 31.9 14.2601 31.47 14.7001 30.93C15.1401 30.41 15.4501 29.84 15.6301 29.22C15.8101 28.58 15.9001 27.96 15.9001 27.36C15.9001 26.54 15.7601 25.57 15.4801 24.45C15.2001 23.31 14.7001 22.03 13.9801 20.61L17.8501 18.96C18.2501 19.66 18.6201 20.48 18.9601 21.42C19.3001 22.34 19.5701 23.3 19.7701 24.3C19.9901 25.3 20.1001 26.25 20.1001 27.15C20.1001 27.95 20.0001 28.8 19.8001 29.7C19.6001 30.58 19.2601 31.45 18.7801 32.31C18.3201 33.17 17.6901 33.94 16.8901 34.62C16.0901 35.32 15.1001 35.88 13.9201 36.3C12.7401 36.72 11.3301 36.93 9.69012 36.93C8.37012 36.93 7.13012 36.78 5.97012 36.48C4.83012 36.2 3.82012 35.75 2.94012 35.13C2.08012 34.51 1.40012 33.7 0.900117 32.7C0.400117 31.72 0.150117 30.54 0.150117 29.16ZM9.93012 17.76C9.31012 17.76 8.78012 17.55 8.34012 17.13C7.92012 16.71 7.71012 16.19 7.71012 15.57C7.71012 14.95 7.92012 14.42 8.34012 13.98C8.78012 13.54 9.31012 13.32 9.93012 13.32C10.5301 13.32 11.0401 13.54 11.4601 13.98C11.9001 14.42 12.1201 14.95 12.1201 15.57C12.1201 16.19 11.9001 16.71 11.4601 17.13C11.0401 17.55 10.5301 17.76 9.93012 17.76ZM23.3164 36.9L22.4464 32.7C23.8664 32.52 25.1064 32.3 26.1664 32.04C27.2264 31.8 28.1164 31.46 28.8364 31.02C29.5564 30.58 30.0964 29.98 30.4564 29.22C30.8164 28.44 30.9964 27.44 30.9964 26.22C30.9964 25.04 30.8164 24.1 30.4564 23.4C30.0964 22.7 29.6164 22.35 29.0164 22.35C28.5964 22.35 28.2464 22.5 27.9664 22.8C27.6864 23.08 27.4764 23.42 27.3364 23.82C27.2164 24.2 27.1564 24.54 27.1564 24.84C27.1564 25.02 27.2064 25.21 27.3064 25.41C27.4064 25.61 27.6264 25.78 27.9664 25.92C28.3064 26.06 28.8364 26.14 29.5564 26.16C30.2964 26.18 31.2964 26.11 32.5564 25.95H37.5964C38.3564 25.95 38.8964 26.15 39.2164 26.55C39.5564 26.93 39.7264 27.41 39.7264 27.99C39.7264 28.61 39.5164 29.13 39.0964 29.55C38.6764 29.95 38.0764 30.15 37.2964 30.15H29.0464C27.7864 30.15 26.7064 30 25.8064 29.7C24.9064 29.4 24.2164 28.92 23.7364 28.26C23.2564 27.58 23.0164 26.68 23.0164 25.56C23.0164 24.66 23.1664 23.76 23.4664 22.86C23.7864 21.96 24.2264 21.14 24.7864 20.4C25.3464 19.64 25.9964 19.04 26.7364 18.6C27.4964 18.14 28.3164 17.91 29.1964 17.91C30.3964 17.91 31.4464 18.28 32.3464 19.02C33.2464 19.76 33.9464 20.74 34.4464 21.96C34.9664 23.18 35.2264 24.51 35.2264 25.95C35.2264 28.21 34.7464 30.13 33.7864 31.71C32.8264 33.29 31.4564 34.51 29.6764 35.37C27.8964 36.25 25.7764 36.76 23.3164 36.9ZM37.3389 30.15L37.6389 25.95C38.3589 25.95 38.9789 25.88 39.4989 25.74C40.0189 25.6 40.4589 25.32 40.8189 24.9C41.1789 24.46 41.4789 23.82 41.7189 22.98C41.9789 22.14 42.2089 21.02 42.4089 19.62L46.3389 20.28C46.2989 20.58 46.2389 20.93 46.1589 21.33C46.0989 21.73 46.0389 22.14 45.9789 22.56C45.9389 22.96 45.9189 23.34 45.9189 23.7C45.9189 24.06 45.9889 24.38 46.1289 24.66C46.2689 24.94 46.4889 25.18 46.7889 25.38C47.1089 25.56 47.5189 25.7 48.0189 25.8C48.5389 25.9 49.1689 25.95 49.9089 25.95C50.6689 25.95 51.2089 26.15 51.5289 26.55C51.8489 26.93 52.0089 27.41 52.0089 27.99C52.0089 28.61 51.7989 29.13 51.3789 29.55C50.9789 29.95 50.3889 30.15 49.6089 30.15C48.7089 30.15 47.8889 30.08 47.1489 29.94C46.4289 29.8 45.7989 29.57 45.2589 29.25C44.7389 28.91 44.3089 28.47 43.9689 27.93C43.6489 27.37 43.4489 26.69 43.3689 25.89H44.8089C44.4489 26.85 43.9889 27.62 43.4289 28.2C42.8889 28.76 42.2789 29.18 41.5989 29.46C40.9189 29.74 40.2089 29.92 39.4689 30C38.7489 30.1 38.0389 30.15 37.3389 30.15ZM45.7089 37.11C45.1289 37.11 44.6289 36.9 44.2089 36.48C43.8089 36.08 43.6089 35.6 43.6089 35.04C43.6089 34.46 43.8089 33.96 44.2089 33.54C44.6289 33.12 45.1289 32.91 45.7089 32.91C46.2689 32.91 46.7489 33.12 47.1489 33.54C47.5489 33.96 47.7489 34.46 47.7489 35.04C47.7489 35.6 47.5489 36.08 47.1489 36.48C46.7489 36.9 46.2689 37.11 45.7089 37.11ZM40.5189 37.11C39.9389 37.11 39.4389 36.9 39.0189 36.48C38.6189 36.08 38.4189 35.6 38.4189 35.04C38.4189 34.46 38.6189 33.96 39.0189 33.54C39.4389 33.12 39.9389 32.91 40.5189 32.91C41.0789 32.91 41.5589 33.12 41.9589 33.54C42.3589 33.96 42.5589 34.46 42.5589 35.04C42.5589 35.6 42.3589 36.08 41.9589 36.48C41.5589 36.9 41.0789 37.11 40.5189 37.11ZM49.6143 30.15L49.9143 25.95C50.8543 25.95 51.5143 25.86 51.8943 25.68C52.2943 25.48 52.5343 25.12 52.6143 24.6C52.6943 24.06 52.7143 23.28 52.6743 22.26L52.1943 8.04H56.4543L56.9643 22.23C57.0043 23.23 57.1243 24 57.3243 24.54C57.5243 25.08 57.8543 25.45 58.3143 25.65C58.7943 25.85 59.4343 25.95 60.2343 25.95C60.9943 25.95 61.5343 26.15 61.8543 26.55C62.1743 26.93 62.3343 27.41 62.3343 27.99C62.3343 28.61 62.1243 29.13 61.7043 29.55C61.2843 29.95 60.6943 30.15 59.9343 30.15C59.0543 30.15 58.2343 30.05 57.4743 29.85C56.7143 29.65 56.0843 29.27 55.5843 28.71C55.0843 28.15 54.7543 27.34 54.5943 26.28L55.9143 26.31C55.5743 27.35 55.1343 28.15 54.5943 28.71C54.0543 29.25 53.3743 29.63 52.5543 29.85C51.7543 30.05 50.7743 30.15 49.6143 30.15ZM59.9268 30.15L60.2268 25.95C60.6868 25.95 61.0768 25.84 61.3968 25.62C61.7368 25.38 62.0868 24.99 62.4468 24.45C62.8068 23.89 63.2268 23.14 63.7068 22.2C64.3068 21 64.9268 20.06 65.5668 19.38C66.2268 18.7 66.8968 18.22 67.5768 17.94C68.2768 17.64 68.9768 17.49 69.6768 17.49C70.5568 17.49 71.3768 17.68 72.1368 18.06C72.8968 18.44 73.5568 18.96 74.1168 19.62C74.6768 20.26 75.1068 21 75.4068 21.84C75.7268 22.66 75.8868 23.51 75.8868 24.39C75.8868 25.45 75.6568 26.41 75.1968 27.27C74.7568 28.11 74.1368 28.78 73.3368 29.28C72.5568 29.76 71.6568 30 70.6368 30C69.7768 30 68.7768 29.85 67.6368 29.55C66.4968 29.25 65.2968 28.62 64.0368 27.66L65.5668 24.03C66.4668 24.65 67.3068 25.1 68.0868 25.38C68.8868 25.66 69.5468 25.8 70.0668 25.8C70.4668 25.8 70.7968 25.76 71.0568 25.68C71.3168 25.6 71.5068 25.47 71.6268 25.29C71.7468 25.11 71.8068 24.87 71.8068 24.57C71.8068 24.15 71.7068 23.72 71.5068 23.28C71.3068 22.84 71.0368 22.47 70.6968 22.17C70.3768 21.85 69.9968 21.69 69.5568 21.69C69.1368 21.69 68.7768 21.85 68.4768 22.17C68.1968 22.47 67.9168 22.91 67.6368 23.49C67.3768 24.05 67.0568 24.71 66.6768 25.47C66.2168 26.39 65.7668 27.16 65.3268 27.78C64.8868 28.38 64.4168 28.86 63.9168 29.22C63.4368 29.56 62.8668 29.8 62.2068 29.94C61.5668 30.08 60.8068 30.15 59.9268 30.15ZM89.7958 7.16V0.799999H100.876V30H93.7558V7.16H89.7958ZM109.435 30.32C108.235 30.32 107.248 29.9733 106.475 29.28C105.728 28.56 105.355 27.68 105.355 26.64C105.355 25.5733 105.728 24.68 106.475 23.96C107.248 23.24 108.235 22.88 109.435 22.88C110.608 22.88 111.568 23.24 112.315 23.96C113.088 24.68 113.475 25.5733 113.475 26.64C113.475 27.68 113.088 28.56 112.315 29.28C111.568 29.9733 110.608 30.32 109.435 30.32ZM131.284 8.68C131.071 7.69333 130.697 6.96 130.164 6.48C129.631 5.97333 128.871 5.72 127.884 5.72C126.364 5.72 125.271 6.38666 124.604 7.72C123.937 9.02667 123.591 11.1067 123.564 13.96C124.151 13.0267 124.991 12.2933 126.084 11.76C127.204 11.2267 128.431 10.96 129.764 10.96C132.377 10.96 134.471 11.7867 136.044 13.44C137.644 15.0933 138.444 17.4 138.444 20.36C138.444 22.3067 138.044 24.0133 137.244 25.48C136.471 26.9467 135.324 28.0933 133.804 28.92C132.311 29.7467 130.537 30.16 128.484 30.16C124.377 30.16 121.524 28.88 119.924 26.32C118.324 23.7333 117.524 20.0267 117.524 15.2C117.524 10.1333 118.364 6.37333 120.044 3.92C121.751 1.44 124.471 0.199997 128.204 0.199997C130.204 0.199997 131.884 0.599998 133.244 1.4C134.631 2.17333 135.671 3.2 136.364 4.48C137.084 5.76 137.511 7.16 137.644 8.68H131.284ZM128.124 16.36C126.977 16.36 126.017 16.7067 125.244 17.4C124.497 18.0667 124.124 19.0267 124.124 20.28C124.124 21.56 124.471 22.56 125.164 23.28C125.884 24 126.897 24.36 128.204 24.36C129.377 24.36 130.297 24.0133 130.964 23.32C131.657 22.6 132.004 21.6267 132.004 20.4C132.004 19.1467 131.671 18.16 131.004 17.44C130.337 16.72 129.377 16.36 128.124 16.36ZM163.273 19.08H156.313V26.2H149.833V19.08H142.873V12.96H149.833V5.8H156.313V12.96H163.273V19.08Z" fill="#0397D6"/>
</svg>