<svg xmlns="http://www.w3.org/2000/svg" width="140" height="98" viewBox="0 0 140 98" fill="none">
<path d="M130.173 0H9.14767C4.09555 0 0 4.09555 0 9.14767V87.9753C0 93.0274 4.09555 97.1229 9.14767 97.1229H130.173C135.225 97.1229 139.321 93.0274 139.321 87.9753V9.14767C139.321 4.09555 135.225 0 130.173 0Z" fill="#A2B2BF"/>
<path d="M130.138 2.90939H9.18298C5.5969 2.90939 2.68982 5.81648 2.68982 9.40255V87.7243C2.68982 91.3104 5.5969 94.2175 9.18298 94.2175H130.138C133.724 94.2175 136.631 91.3104 136.631 87.7243V9.40255C136.631 5.81648 133.724 2.90939 130.138 2.90939Z" fill="#EDF2F4"/>
<path d="M35.5047 61.2929H29.7839V69.3741H35.5047V61.2929Z" fill="#F2A057"/>
<path d="M32.6462 62.3516C37.5966 62.3516 41.6096 58.3386 41.6096 53.3882C41.6096 48.4379 37.5966 44.4248 32.6462 44.4248C27.6959 44.4248 23.6829 48.4379 23.6829 53.3882C23.6829 58.3386 27.6959 62.3516 32.6462 62.3516Z" fill="#F2A057"/>
<path d="M34.4263 63.967L32.6462 68.0801L30.8661 63.967C23.3456 64.8492 17.5073 71.2405 17.5073 78.9962H47.7812C47.7812 71.2365 41.9429 64.8492 34.4224 63.967H34.4263Z" fill="#032F3C"/>
<path d="M39.1041 43.5661C38.2963 42.4329 37.1945 41.5233 35.9163 40.9469C35.7281 40.8606 35.5399 40.7822 35.3438 40.7116C34.8929 40.5509 34.4263 40.4293 33.944 40.347C33.5206 40.2764 33.0893 40.2411 32.6462 40.2411C32.2031 40.2411 31.7718 40.2803 31.3483 40.347C30.8661 40.4254 30.3995 40.5469 29.9486 40.7116C29.7525 40.7822 29.5643 40.8606 29.3761 40.9469C28.0939 41.5272 26.996 42.4369 26.1883 43.5661C24.1024 43.8955 22.5104 45.6991 22.5104 47.8753C22.5104 49.8946 23.8828 51.5924 25.7413 52.0903C26.1021 52.1884 26.4824 52.2393 26.8745 52.2393C28.4625 52.2393 29.8505 51.3924 30.6151 50.1259C31.2229 50.4474 31.9169 50.6278 32.6501 50.6278C33.3833 50.6278 34.0774 50.4435 34.6851 50.1259C35.4497 51.3924 36.8377 52.2393 38.4257 52.2393C38.8178 52.2393 39.1982 52.1884 39.5589 52.0903C41.4214 51.5924 42.7898 49.8946 42.7898 47.8753C42.7898 45.6991 41.194 43.8915 39.1119 43.5661H39.1041Z" fill="#032F3C"/>
<path fill-rule="evenodd" clip-rule="evenodd" d="M74.1421 51.9806H50.3574C48.7145 51.9806 47.3696 53.3255 47.3696 54.9684V71.6993C47.3696 73.3422 48.7145 74.6871 50.3574 74.6871H59.509L58.3248 78.8708C58.2072 79.3021 58.4581 79.7334 58.8738 79.851C58.9404 79.8667 59.0228 79.8824 59.0894 79.8824C59.4227 79.8824 59.7364 79.6667 59.854 79.3021L61.1636 74.6871H63.3241L64.6376 79.3178C64.7356 79.651 65.0532 79.8824 65.4022 79.8824C65.4689 79.8824 65.5512 79.8824 65.6179 79.8667C66.0492 79.7334 66.2805 79.3021 66.1668 78.8864L64.9748 74.6871H74.1303C75.7732 74.6871 77.1181 73.3422 77.1338 71.6993V54.9684C77.1338 53.3255 75.7889 51.9806 74.146 51.9806H74.1421ZM75.5537 71.6836C75.5537 72.4639 74.9224 73.0951 74.1421 73.0951H60.6813C60.599 73.0834 60.5167 73.0834 60.4382 73.0951H50.3574C49.5771 73.0951 48.9458 72.4639 48.9458 71.6836V54.9527C48.9458 54.1724 49.5771 53.5412 50.3574 53.5412H74.1421C74.9224 53.5412 75.5537 54.1724 75.5537 54.9527V71.6836Z" fill="#032F3C"/>
<path d="M12.5825 78.2355H126.083C129.157 78.2355 131.655 80.7332 131.655 83.8073C131.655 85.9952 129.879 87.7714 127.691 87.7714H10.9749C8.78695 87.7714 7.01074 85.9952 7.01074 83.8073C7.01074 80.7332 9.50841 78.2355 12.5825 78.2355Z" fill="#F2A057"/>
<path fill-rule="evenodd" clip-rule="evenodd" d="M102.463 20.001C101.652 20.001 100.993 19.3462 100.993 18.5306V12.5903C100.993 11.7787 101.648 11.1199 102.463 11.1199C103.279 11.1199 103.934 11.7748 103.934 12.5903V18.5306C103.965 19.3423 103.306 20.001 102.463 20.001Z" fill="#F2A057"/>
<path fill-rule="evenodd" clip-rule="evenodd" d="M112.125 22.5967C111.874 22.5967 111.623 22.534 111.376 22.4085C110.658 22.0007 110.439 21.095 110.842 20.3774L113.815 15.2174C114.222 14.4999 115.128 14.2803 115.846 14.6841C116.563 15.0919 116.783 15.9977 116.379 16.7152L113.407 21.8752C113.125 22.3144 112.627 22.5928 112.125 22.5928V22.5967Z" fill="#F2A057"/>
<path fill-rule="evenodd" clip-rule="evenodd" d="M119.194 29.6624C118.692 29.6624 118.194 29.4114 117.912 28.9135C117.504 28.1959 117.755 27.2862 118.445 26.8824L123.605 23.9103C124.323 23.5025 125.233 23.7534 125.636 24.4435C126.044 25.1611 125.793 26.0707 125.103 26.4746L119.943 29.4467C119.692 29.6035 119.441 29.6663 119.194 29.6663V29.6624Z" fill="#F2A057"/>
<path fill-rule="evenodd" clip-rule="evenodd" d="M127.73 39.2962H121.79C120.978 39.2962 120.32 38.6414 120.32 37.8258C120.32 37.0103 120.974 36.3555 121.79 36.3555H127.73C128.542 36.3555 129.201 37.0103 129.201 37.8258C129.201 38.6414 128.546 39.2962 127.73 39.2962Z" fill="#F2A057"/>
<path fill-rule="evenodd" clip-rule="evenodd" d="M124.354 51.9296C124.103 51.9296 123.852 51.8669 123.605 51.7414L118.445 48.7693C117.728 48.3615 117.508 47.4558 117.912 46.7382C118.316 46.0207 119.226 45.8011 119.943 46.205L125.103 49.1771C125.821 49.5849 126.04 50.4906 125.636 51.2082C125.354 51.6473 124.856 51.9257 124.354 51.9257V51.9296Z" fill="#F2A057"/>
<path fill-rule="evenodd" clip-rule="evenodd" d="M115.097 61.1558C114.595 61.1558 114.097 60.9048 113.815 60.4069L110.843 55.2468C110.435 54.5293 110.686 53.6196 111.376 53.2158C112.093 52.808 113.003 53.0589 113.407 53.749L116.379 58.909C116.787 59.6266 116.536 60.5363 115.846 60.9401C115.595 61.097 115.344 61.1597 115.097 61.1597V61.1558Z" fill="#F2A057"/>
<path fill-rule="evenodd" clip-rule="evenodd" d="M102.463 64.5631C101.652 64.5631 100.993 63.9083 100.993 63.0927V57.1524C100.993 56.3408 101.648 55.6821 102.463 55.6821C103.279 55.6821 103.934 56.3369 103.934 57.1524V63.0927C103.965 63.873 103.306 64.5631 102.463 64.5631Z" fill="#F2A057"/>
<path fill-rule="evenodd" clip-rule="evenodd" d="M89.8613 61.1557C89.6103 61.1557 89.3594 61.093 89.1124 60.9675C88.3948 60.5598 88.1753 59.654 88.5791 58.9365L91.5512 53.7764C91.959 53.0589 92.8648 52.8393 93.5823 53.2432C94.2998 53.647 94.5194 54.5567 94.1156 55.2743L91.1434 60.4343C90.8611 60.9048 90.3632 61.1518 89.8613 61.1518V61.1557Z" fill="#F2A057"/>
<path fill-rule="evenodd" clip-rule="evenodd" d="M92.8295 22.5967C92.3276 22.5967 91.8296 22.3458 91.5473 21.8478L88.5752 16.6878C88.1674 15.9703 88.4183 15.0606 89.1084 14.6567C89.826 14.2489 90.7356 14.4999 91.1395 15.19L94.1116 20.35C94.5194 21.0676 94.2685 21.9772 93.5784 22.3811C93.3274 22.5379 93.0765 22.6007 92.8295 22.6007V22.5967Z" fill="#F2A057"/>
<path fill-rule="evenodd" clip-rule="evenodd" d="M85.7639 29.6624C85.5129 29.6624 85.262 29.5996 85.015 29.4742L79.8549 26.4707C79.1374 26.0629 78.9178 25.1572 79.3217 24.4396C79.7295 23.7221 80.6352 23.5025 81.3528 23.9064L86.5128 26.8785C87.2303 27.2863 87.4499 28.192 87.046 28.9095C86.7637 29.3801 86.2658 29.6585 85.7639 29.6585V29.6624Z" fill="#F2A057"/>
<path fill-rule="evenodd" clip-rule="evenodd" d="M102.961 39.2962H93.5784C92.7668 39.2962 92.108 38.6414 92.108 37.8258C92.108 37.0103 92.7628 36.3555 93.5784 36.3555H101.46V24.6905C101.46 23.8789 102.114 23.2201 102.93 23.2201C103.746 23.2201 104.4 23.8749 104.4 24.6905V37.8258C104.432 38.6375 103.773 39.2962 102.961 39.2962Z" fill="#032F3C"/>
<path fill-rule="evenodd" clip-rule="evenodd" d="M83.1681 39.2962H77.2278C76.4162 39.2962 75.7574 38.6414 75.7574 37.8259C75.7574 37.0103 76.4123 36.3555 77.2278 36.3555H83.1681C83.9798 36.3555 84.6385 37.0103 84.6385 37.8259C84.6699 38.6375 83.9837 39.2962 83.1681 39.2962Z" fill="#F2A057"/>
<path fill-rule="evenodd" clip-rule="evenodd" d="M80.6038 51.9296C80.1019 51.9296 79.604 51.6787 79.3216 51.1807C78.9139 50.4632 79.1648 49.5535 79.8549 49.1497L85.0149 46.1775C85.7325 45.7698 86.6421 46.0207 87.046 46.7108C87.4538 47.4283 87.2028 48.338 86.5127 48.7419L81.3527 51.714C81.1018 51.8708 80.8508 51.9336 80.6038 51.9336V51.9296Z" fill="#F2A057"/>
<path fill-rule="evenodd" clip-rule="evenodd" d="M102.463 14.0568C89.3594 14.0568 78.6982 24.7219 78.6982 37.8219C78.6982 50.9219 89.3633 61.587 102.463 61.587C115.563 61.587 126.228 50.9219 126.228 37.8219C126.228 24.7219 115.563 14.0568 102.463 14.0568ZM102.463 64.5631C87.7321 64.5631 75.7261 52.5844 75.7261 37.8258C75.7261 23.0672 87.7047 11.0886 102.463 11.0886C117.222 11.0886 129.201 23.0672 129.201 37.8258C129.201 52.5844 117.222 64.5631 102.463 64.5631Z" fill="#032F3C"/>
<path d="M28.0641 11.3896L15.3057 11.5032C12.861 11.5249 10.8967 13.5245 10.9185 15.9692L11.0321 28.7276C11.0538 31.1724 13.0533 33.1366 15.4981 33.1148L28.2565 33.0013C30.7012 32.9795 32.6655 30.98 32.6437 28.5352L32.5301 15.7768C32.5084 13.3321 30.5089 11.3679 28.0641 11.3896Z" fill="#A2B2BF"/>
<path d="M19.5501 28.3801L29.0899 28.2939C30.027 28.286 30.5877 27.247 30.078 26.4589L25.2434 18.9619C24.7689 18.2287 23.6907 18.2365 23.2319 18.9815L18.5306 26.5608C18.0366 27.3568 18.6169 28.388 19.554 28.3801H19.5501Z" fill="#0397D6"/>
<path d="M15.5389 28.4194L22.283 28.3606C22.9457 28.3527 23.3417 27.6195 22.981 27.0627L19.5619 21.7654C19.2286 21.2479 18.464 21.2518 18.1385 21.7772L14.8135 27.1372C14.4646 27.7018 14.8723 28.4272 15.535 28.4233L15.5389 28.4194Z" fill="#EDF2F4"/>
<path d="M17.2956 18.9698C18.2765 18.9698 19.0718 18.1745 19.0718 17.1936C19.0718 16.2126 18.2765 15.4174 17.2956 15.4174C16.3146 15.4174 15.5193 16.2126 15.5193 17.1936C15.5193 18.1745 16.3146 18.9698 17.2956 18.9698Z" fill="#F2A057"/>
<path d="M48.4483 11.3927L41.1046 11.4581C39.4221 11.4731 38.0702 12.8492 38.0852 14.5317L38.1506 21.8754C38.1656 23.558 39.5417 24.9098 41.2242 24.8948L48.5679 24.8294C50.2505 24.8145 51.6023 23.4384 51.5873 21.7558L51.5219 14.4121C51.5069 12.7296 50.1308 11.3778 48.4483 11.3927Z" fill="#A2B2BF"/>
<path d="M42.1115 21.9654L50.7298 21.8909L46.3579 15.1154L42.1115 21.9654Z" fill="#0397D6"/>
<path d="M40.0098 21.9889L46.103 21.934L43.0133 17.1426L40.0098 21.9889Z" fill="#EDF2F4"/>
<path d="M42.0527 16.0996C42.6612 16.0996 43.1545 15.6063 43.1545 14.9978C43.1545 14.3893 42.6612 13.896 42.0527 13.896C41.4442 13.896 40.9509 14.3893 40.9509 14.9978C40.9509 15.6063 41.4442 16.0996 42.0527 16.0996Z" fill="#F2A057"/>
</svg>