<svg xmlns="http://www.w3.org/2000/svg" width="129" height="120" viewBox="0 0 129 120" fill="none">
  <path d="M53.1777 1.1789L5.77398 10.8578C2.5851 11.5089 0.527824 14.6218 1.17893 17.8107L16.1287 91.0296C16.7798 94.2184 19.8927 96.2757 23.0816 95.6246L70.4854 85.9457C73.6742 85.2946 75.7315 82.1817 75.0804 78.9928L60.1306 5.77395C59.4795 2.58507 56.3666 0.527798 53.1777 1.1789Z" fill="#032F3C"/>
  <path d="M49.0971 15.035L14.974 22.0022C14.0116 22.1987 13.3906 23.1383 13.5871 24.1008L13.6015 24.1709C13.798 25.1333 14.7375 25.7543 15.7 25.5578L49.8231 18.5905C50.7855 18.394 51.4065 17.4545 51.21 16.492L51.1956 16.4219C50.9991 15.4594 50.0596 14.8385 49.0971 15.035Z" fill="#F2A057"/>
  <path d="M56.6368 26.4686L12.5131 35.4778C11.8577 35.6116 11.4348 36.2515 11.5686 36.907L11.5799 36.962C11.7137 37.6175 12.3536 38.0404 13.009 37.9066L57.1327 28.8974C57.7882 28.7636 58.211 28.1237 58.0772 27.4682L58.0659 27.4132C57.9321 26.7577 57.2922 26.3348 56.6368 26.4686Z" fill="#A2B2BF"/>
  <path d="M58.2132 34.1997L14.0896 43.2088C13.4341 43.3427 13.0112 43.9825 13.145 44.638L13.1563 44.6931C13.2901 45.3486 13.93 45.7715 14.5855 45.6376L58.7091 36.6285C59.3646 36.4946 59.7874 35.8548 59.6536 35.1993L59.6424 35.1442C59.5085 34.4887 58.8687 34.0659 58.2132 34.1997Z" fill="#A2B2BF"/>
  <path d="M59.7948 41.9359L15.6711 50.945C15.0157 51.0789 14.5928 51.7187 14.7266 52.3742L14.7379 52.4293C14.8717 53.0848 15.5116 53.5076 16.167 53.3738L60.2907 44.3647C60.9461 44.2308 61.369 43.591 61.2352 42.9355L61.2239 42.8804C61.0901 42.2249 60.4502 41.802 59.7948 41.9359Z" fill="#A2B2BF"/>
  <path d="M61.3763 49.6669L17.2526 58.6761C16.5972 58.8099 16.1743 59.4498 16.3081 60.1053L16.3194 60.1603C16.4532 60.8158 17.0931 61.2387 17.7485 61.1049L61.8722 52.0957C62.5277 51.9619 62.9505 51.322 62.8167 50.6665L62.8054 50.6115C62.6716 49.956 62.0318 49.5331 61.3763 49.6669Z" fill="#A2B2BF"/>
  <path d="M62.9527 57.4031L18.8291 66.4122C18.1736 66.546 17.7507 67.1859 17.8845 67.8414L17.8958 67.8965C18.0296 68.552 18.6695 68.9748 19.325 68.841L63.4486 59.8319C64.1041 59.698 64.527 59.0582 64.3931 58.4027L64.3819 58.3476C64.248 57.6921 63.6082 57.2692 62.9527 57.4031Z" fill="#A2B2BF"/>
  <path d="M64.5343 65.1341L20.4106 74.1433C19.7552 74.2771 19.3323 74.917 19.4661 75.5724L19.4774 75.6275C19.6112 76.283 20.2511 76.7059 20.9065 76.5721L65.0302 67.5629C65.6856 67.4291 66.1085 66.7892 65.9747 66.1337L65.9634 66.0787C65.8296 65.4232 65.1897 65.0003 64.5343 65.1341Z" fill="#A2B2BF"/>
  <path d="M66.1107 72.8652L21.987 81.8743C21.3316 82.0082 20.9087 82.648 21.0425 83.3035L21.0538 83.3586C21.1876 84.0141 21.8275 84.4369 22.483 84.3031L66.6066 75.294C67.2621 75.1601 67.6849 74.5203 67.5511 73.8648L67.5399 73.8097C67.406 73.1542 66.7662 72.7314 66.1107 72.8652Z" fill="#A2B2BF"/>
  <path d="M91.1372 12.1403L45.5716 10.0951C42.3202 9.94912 39.5661 12.4666 39.4201 15.718L36.2478 86.3948C36.1019 89.6462 38.6193 92.4003 41.8707 92.5462L87.4364 94.5914C90.6878 94.7374 93.4419 92.2199 93.5878 88.9685L96.7602 18.2917C96.9061 15.0403 94.3886 12.2862 91.1372 12.1403Z" fill="#0397D6"/>
  <path d="M84.3648 24.0221L51.2475 22.5356C50.2915 22.4927 49.4818 23.2329 49.4388 24.1889C49.3959 25.1448 50.1361 25.9546 51.0921 25.9975L84.2094 27.4839C85.1654 27.5269 85.9751 26.7867 86.018 25.8307C86.0609 24.8747 85.3207 24.065 84.3648 24.0221Z" fill="#F2A057"/>
  <path d="M88.6983 36.3547L45.8286 34.4305C45.1772 34.4013 44.6254 34.9056 44.5962 35.557L44.596 35.5621C44.5667 36.2136 45.0711 36.7653 45.7225 36.7946L88.5922 38.7188C89.2436 38.748 89.7954 38.2436 89.8246 37.5922L89.8249 37.5871C89.8541 36.9357 89.3497 36.384 88.6983 36.3547Z" fill="#A2B2BF"/>
  <path d="M88.3562 43.8758L45.4865 41.9516C44.8351 41.9224 44.2833 42.4267 44.2541 43.0781L44.2538 43.0832C44.2246 43.7347 44.729 44.2864 45.3804 44.3157L88.2501 46.2399C88.9015 46.2691 89.4533 45.7647 89.4825 45.1133L89.4827 45.1082C89.512 44.4568 89.0076 43.9051 88.3562 43.8758Z" fill="#A2B2BF"/>
  <path d="M88.0192 51.4022L45.1495 49.478C44.4981 49.4487 43.9463 49.9531 43.9171 50.6045L43.9168 50.6096C43.8876 51.261 44.392 51.8128 45.0434 51.842L87.9131 53.7662C88.5645 53.7955 89.1163 53.2911 89.1455 52.6397L89.1457 52.6346C89.175 51.9832 88.6706 51.4314 88.0192 51.4022Z" fill="#A2B2BF"/>
  <path d="M87.6824 58.9184L44.8127 56.9942C44.1613 56.9649 43.6095 57.4693 43.5803 58.1207L43.58 58.1258C43.5508 58.7772 44.0552 59.329 44.7066 59.3582L87.5763 61.2824C88.2277 61.3117 88.7795 60.8073 88.8087 60.1559L88.8089 60.1508C88.8382 59.4994 88.3338 58.9476 87.6824 58.9184Z" fill="#A2B2BF"/>
  <path d="M87.3454 66.4448L44.4757 64.5206C43.8243 64.4914 43.2725 64.9958 43.2433 65.6472L43.243 65.6523C43.2138 66.3037 43.7182 66.8555 44.3696 66.8847L87.2393 68.8089C87.8907 68.8382 88.4425 68.3338 88.4717 67.6824L88.4719 67.6773C88.5012 67.0259 87.9968 66.4741 87.3454 66.4448Z" fill="#A2B2BF"/>
  <path d="M87.0084 73.9661L44.1386 72.0419C43.4872 72.0126 42.9355 72.517 42.9062 73.1684L42.906 73.1735C42.8768 73.8249 43.3811 74.3767 44.0325 74.4059L86.9022 76.3301C87.5536 76.3594 88.1054 75.855 88.1347 75.2036L88.1349 75.1985C88.1641 74.5471 87.6598 73.9953 87.0084 73.9661Z" fill="#A2B2BF"/>
  <path d="M86.6713 81.4926L43.8016 79.5684C43.1502 79.5391 42.5985 80.0435 42.5692 80.6949L42.569 80.7C42.5398 81.3514 43.0441 81.9032 43.6955 81.9324L86.5652 83.8566C87.2166 83.8859 87.7684 83.3815 87.7977 82.7301L87.7979 82.725C87.8271 82.0736 87.3228 81.5218 86.6713 81.4926Z" fill="#A2B2BF"/>
  <path d="M122.795 30.9301L73.7898 19.8053C70.6159 19.0848 67.4588 21.0737 66.7383 24.2476L49.5985 99.7497C48.878 102.924 50.8669 106.081 54.0408 106.801L103.046 117.926C106.22 118.646 109.377 116.658 110.098 113.484L127.238 37.9816C127.958 34.8077 125.969 31.6506 122.795 30.9301Z" fill="#032F3C"/>
  <path d="M112.857 42.1644L77.9119 34.2315C76.9044 34.0028 75.9022 34.6341 75.6735 35.6416C75.4448 36.6491 76.0761 37.6513 77.0836 37.88L112.029 45.8129C113.036 46.0416 114.038 45.4103 114.267 44.4028C114.496 43.3952 113.864 42.3931 112.857 42.1644Z" fill="#F2A057"/>
  <path d="M115.094 56.1082L69.8667 45.8411C69.1786 45.6849 68.494 46.1161 68.3378 46.8043C68.1816 47.4925 68.6128 48.177 69.301 48.3333L114.528 58.6004C115.217 58.7566 115.901 58.3254 116.057 57.6372C116.214 56.949 115.782 56.2645 115.094 56.1082Z" fill="#A2B2BF"/>
  <path d="M113.295 64.0486L68.0673 53.7814C67.3791 53.6252 66.6946 54.0564 66.5384 54.7446C66.3821 55.4328 66.8134 56.1173 67.5016 56.2736L112.729 66.5407C113.417 66.6969 114.102 66.2657 114.258 65.5775C114.414 64.8893 113.983 64.2048 113.295 64.0486Z" fill="#A2B2BF"/>
  <path d="M111.49 71.9826L66.2629 61.7155C65.5747 61.5593 64.8901 61.9905 64.7339 62.6787C64.5777 63.3669 65.0089 64.0514 65.6971 64.2077L110.925 74.4748C111.613 74.631 112.297 74.1998 112.454 73.5116C112.61 72.8234 112.179 72.1389 111.49 71.9826Z" fill="#A2B2BF"/>
  <path d="M109.691 79.923L64.4634 69.6558C63.7752 69.4996 63.0907 69.9309 62.9344 70.619C62.7782 71.3072 63.2095 71.9918 63.8976 72.148L109.125 82.4151C109.813 82.5713 110.498 82.1401 110.654 81.4519C110.81 80.7637 110.379 80.0792 109.691 79.923Z" fill="#A2B2BF"/>
  <path d="M107.888 87.8572L62.6601 77.59C61.9719 77.4338 61.2874 77.865 61.1312 78.5532C60.9749 79.2414 61.4062 79.926 62.0944 80.0822L107.322 90.3493C108.01 90.5055 108.695 90.0743 108.851 89.3861C109.007 88.6979 108.576 88.0134 107.888 87.8572Z" fill="#A2B2BF"/>
  <path d="M106.083 95.7912L60.8557 85.5241C60.1675 85.3679 59.4829 85.7991 59.3267 86.4873C59.1705 87.1755 59.6017 87.86 60.2899 88.0163L105.517 98.2834C106.206 98.4396 106.89 98.0084 107.046 97.3202C107.203 96.632 106.771 95.9475 106.083 95.7912Z" fill="#A2B2BF"/>
  <path d="M104.284 103.732L59.0562 93.4645C58.368 93.3082 57.6835 93.7395 57.5273 94.4277C57.3711 95.1158 57.8023 95.8004 58.4905 95.9566L103.718 106.224C104.406 106.38 105.091 105.949 105.247 105.261C105.403 104.572 104.972 103.888 104.284 103.732Z" fill="#A2B2BF"/>
</svg>