<svg xmlns="http://www.w3.org/2000/svg" width="100" height="20" viewBox="0 0 117 31" fill="none">
<path d="M12.1888 30.63L12.9688 26.43C14.2088 26.43 15.3888 26.39 16.5088 26.31C17.6288 26.23 18.6588 26.13 19.5988 26.01C20.5588 25.89 21.3888 25.76 22.0888 25.62C22.8088 25.48 23.3588 25.35 23.7388 25.23C24.4188 25.01 24.9988 24.74 25.4788 24.42C25.9588 24.1 26.3288 23.74 26.5888 23.34C26.8488 22.94 26.9788 22.54 26.9788 22.14C26.9788 21.86 26.9288 21.58 26.8288 21.3C26.7288 21.02 26.5888 20.76 26.4088 20.52C26.2488 20.28 26.0488 20.09 25.8088 19.95C25.5888 19.79 25.3588 19.71 25.1188 19.71C24.7988 19.71 24.4788 19.83 24.1588 20.07C23.8588 20.31 23.6088 20.63 23.4088 21.03C23.2288 21.41 23.1388 21.84 23.1388 22.32C23.1388 22.66 23.2388 23.02 23.4388 23.4C23.6388 23.78 23.9188 24.15 24.2788 24.51C24.6588 24.85 25.0888 25.15 25.5688 25.41L21.5788 26.94C21.1388 26.52 20.7188 26.09 20.3188 25.65C19.9388 25.19 19.6188 24.68 19.3588 24.12C19.1188 23.56 18.9988 22.93 18.9988 22.23C18.9988 21.31 19.1788 20.46 19.5388 19.68C19.9188 18.88 20.4088 18.18 21.0088 17.58C21.6288 16.98 22.2988 16.52 23.0188 16.2C23.7588 15.86 24.4888 15.69 25.2088 15.69C26.3688 15.69 27.3888 16 28.2688 16.62C29.1488 17.22 29.8388 18 30.3388 18.96C30.8588 19.92 31.1188 20.93 31.1188 21.99C31.1188 22.93 30.9388 23.77 30.5788 24.51C30.2188 25.25 29.7288 25.9 29.1088 26.46C28.5088 27 27.8388 27.48 27.0988 27.9C26.3788 28.32 25.6488 28.68 24.9088 28.98C24.3888 29.2 23.6688 29.41 22.7488 29.61C21.8488 29.81 20.8088 29.98 19.6288 30.12C18.4688 30.28 17.2488 30.4 15.9688 30.48C14.6888 30.58 13.4288 30.63 12.1888 30.63ZM32.8888 30.15C31.7288 30.15 30.5887 30.09 29.4688 29.97C28.3488 29.85 27.3088 29.67 26.3488 29.43C25.4088 29.19 24.5888 28.9 23.8888 28.56L25.9588 25.32C26.5588 25.48 27.2588 25.61 28.0588 25.71C28.8788 25.79 29.7288 25.85 30.6088 25.89C31.5088 25.93 32.3688 25.95 33.1888 25.95C33.9488 25.95 34.4888 26.15 34.8088 26.55C35.1488 26.93 35.3188 27.41 35.3188 27.99C35.3188 28.61 35.1088 29.13 34.6888 29.55C34.2688 29.95 33.6688 30.15 32.8888 30.15ZM12.1888 30.63C10.0288 30.63 8.19875 30.46 6.69875 30.12C5.21875 29.8 4.00875 29.34 3.06875 28.74C2.14875 28.12 1.47875 27.4 1.05875 26.58C0.63875 25.76 0.42875 24.86 0.42875 23.88C0.42875 23.24 0.47875 22.6 0.57875 21.96C0.69875 21.3 0.83875 20.66 0.99875 20.04C1.17875 19.42 1.33875 18.86 1.47875 18.36L5.22875 19.23C5.14875 19.59 5.05875 19.98 4.95875 20.4C4.85875 20.82 4.77875 21.23 4.71875 21.63C4.65875 22.01 4.62875 22.36 4.62875 22.68C4.62875 23.42 4.88875 24.08 5.40875 24.66C5.94875 25.22 6.82875 25.66 8.04875 25.98C9.26875 26.28 10.9088 26.43 12.9688 26.43L13.5688 29.67L12.1888 30.63ZM25.2388 12.9C24.6188 12.9 24.0888 12.69 23.6488 12.27C23.2288 11.85 23.0188 11.33 23.0188 10.71C23.0188 10.09 23.2288 9.56 23.6488 9.12C24.0888 8.68 24.6188 8.46 25.2388 8.46C25.8388 8.46 26.3488 8.68 26.7688 9.12C27.2088 9.56 27.4288 10.09 27.4288 10.71C27.4288 11.33 27.2088 11.85 26.7688 12.27C26.3488 12.69 25.8388 12.9 25.2388 12.9ZM32.9258 30.15L33.2258 25.95C34.1458 25.95 34.8058 25.86 35.2058 25.68C35.6058 25.48 35.8458 25.12 35.9258 24.6C36.0058 24.06 36.0258 23.28 35.9858 22.26L35.4458 8.04H39.6758L40.2758 22.56C40.3158 23.72 40.2658 24.77 40.1258 25.71C40.0058 26.63 39.6958 27.42 39.1958 28.08C38.7158 28.74 37.9658 29.25 36.9458 29.61C35.9458 29.97 34.6058 30.15 32.9258 30.15ZM44.172 30L43.602 10.14H47.802L48.372 30H44.172ZM42.522 8.22L42.012 6.12C42.712 6 43.232 5.9 43.572 5.82C43.932 5.74 44.312 5.65 44.712 5.55L44.412 6.3C43.892 6.12 43.392 5.77 42.912 5.25C42.452 4.71 42.222 4.1 42.222 3.42C42.222 2.7 42.382 2.12 42.702 1.68C43.022 1.24 43.432 0.919999 43.932 0.719998C44.432 0.519998 44.952 0.419998 45.492 0.419998C45.792 0.419998 46.072 0.439999 46.332 0.479999C46.612 0.519999 46.862 0.579998 47.082 0.659999L46.842 2.82C46.642 2.78 46.442 2.74 46.242 2.7C46.042 2.66 45.822 2.64 45.582 2.64C45.322 2.64 45.082 2.73 44.862 2.91C44.662 3.07 44.562 3.27 44.562 3.51C44.562 3.85 44.682 4.15 44.922 4.41C45.162 4.67 45.442 4.88 45.762 5.04C46.102 5.18 46.382 5.26 46.602 5.28L44.952 5.46C45.492 5.32 46.002 5.18 46.482 5.04C46.962 4.88 47.412 4.72 47.832 4.56L48.432 6.57C47.932 6.75 47.342 6.95 46.662 7.17C46.002 7.37 45.312 7.56 44.592 7.74C43.892 7.92 43.202 8.08 42.522 8.22ZM60.0131 24.52C60.9198 23.8 61.3331 23.4667 61.2531 23.52C63.8665 21.36 65.9198 19.5867 67.4131 18.2C68.9331 16.8133 70.2131 15.36 71.2531 13.84C72.2931 12.32 72.8131 10.84 72.8131 9.4C72.8131 8.30666 72.5598 7.45333 72.0531 6.84C71.5465 6.22666 70.7865 5.92 69.7731 5.92C68.7598 5.92 67.9598 6.30666 67.3731 7.08C66.8131 7.82667 66.5331 8.89333 66.5331 10.28H59.9331C59.9865 8.01333 60.4665 6.12 61.3731 4.6C62.3065 3.08 63.5198 1.96 65.0131 1.24C66.5331 0.519998 68.2131 0.159998 70.0531 0.159998C73.2265 0.159998 75.6131 0.973331 77.2131 2.6C78.8398 4.22667 79.6531 6.34667 79.6531 8.96C79.6531 11.8133 78.6798 14.4667 76.7331 16.92C74.7865 19.3467 72.3065 21.72 69.2931 24.04H80.0931V29.6H60.0131V24.52ZM86.9847 30.32C85.7847 30.32 84.798 29.9733 84.0247 29.28C83.278 28.56 82.9047 27.68 82.9047 26.64C82.9047 25.5733 83.278 24.68 84.0247 23.96C84.798 23.24 85.7847 22.88 86.9847 22.88C88.158 22.88 89.118 23.24 89.8647 23.96C90.638 24.68 91.0247 25.5733 91.0247 26.64C91.0247 27.68 90.638 28.56 89.8647 29.28C89.118 29.9733 88.158 30.32 86.9847 30.32ZM99.1938 14.32C96.6871 12.9867 95.4338 10.8933 95.4338 8.04C95.4338 6.6 95.8071 5.29333 96.5538 4.12C97.3004 2.92 98.4338 1.97333 99.9538 1.28C101.474 0.559998 103.34 0.199997 105.554 0.199997C107.767 0.199997 109.62 0.559998 111.114 1.28C112.634 1.97333 113.767 2.92 114.514 4.12C115.26 5.29333 115.634 6.6 115.634 8.04C115.634 9.48 115.287 10.7333 114.594 11.8C113.927 12.8667 113.02 13.7067 111.874 14.32C113.314 15.0133 114.42 15.9733 115.194 17.2C115.967 18.4 116.354 19.8133 116.354 21.44C116.354 23.3333 115.874 24.9733 114.914 26.36C113.954 27.72 112.647 28.76 110.994 29.48C109.367 30.2 107.554 30.56 105.554 30.56C103.554 30.56 101.727 30.2 100.074 29.48C98.4471 28.76 97.1538 27.72 96.1938 26.36C95.2338 24.9733 94.7538 23.3333 94.7538 21.44C94.7538 19.7867 95.1404 18.36 95.9138 17.16C96.6871 15.9333 97.7804 14.9867 99.1938 14.32ZM108.994 9.08C108.994 7.98667 108.674 7.14667 108.034 6.56C107.42 5.94667 106.594 5.64 105.554 5.64C104.514 5.64 103.674 5.94667 103.034 6.56C102.42 7.17333 102.114 8.02667 102.114 9.12C102.114 10.16 102.434 10.9867 103.074 11.6C103.714 12.1867 104.54 12.48 105.554 12.48C106.567 12.48 107.394 12.1733 108.034 11.56C108.674 10.9467 108.994 10.12 108.994 9.08ZM105.554 17.28C104.3 17.28 103.287 17.6267 102.514 18.32C101.74 18.9867 101.354 19.92 101.354 21.12C101.354 22.24 101.727 23.16 102.474 23.88C103.247 24.6 104.274 24.96 105.554 24.96C106.834 24.96 107.834 24.6 108.554 23.88C109.3 23.16 109.674 22.24 109.674 21.12C109.674 19.9467 109.287 19.0133 108.514 18.32C107.767 17.6267 106.78 17.28 105.554 17.28Z" fill="#0397D6"/>
</svg>