<svg xmlns="http://www.w3.org/2000/svg" width="100" height="20" viewBox="0 0 124 31" fill="none">
<path d="M12.1145 30.63L12.8945 26.43C14.1345 26.43 15.3145 26.39 16.4345 26.31C17.5545 26.23 18.5845 26.13 19.5245 26.01C20.4845 25.89 21.3145 25.76 22.0145 25.62C22.7345 25.48 23.2845 25.35 23.6645 25.23C24.3445 25.01 24.9245 24.74 25.4045 24.42C25.8845 24.1 26.2545 23.74 26.5145 23.34C26.7745 22.94 26.9045 22.54 26.9045 22.14C26.9045 21.86 26.8545 21.58 26.7545 21.3C26.6545 21.02 26.5145 20.76 26.3345 20.52C26.1745 20.28 25.9745 20.09 25.7345 19.95C25.5145 19.79 25.2845 19.71 25.0445 19.71C24.7245 19.71 24.4045 19.83 24.0845 20.07C23.7845 20.31 23.5345 20.63 23.3345 21.03C23.1545 21.41 23.0645 21.84 23.0645 22.32C23.0645 22.66 23.1645 23.02 23.3645 23.4C23.5645 23.78 23.8445 24.15 24.2045 24.51C24.5845 24.85 25.0145 25.15 25.4945 25.41L21.5045 26.94C21.0645 26.52 20.6445 26.09 20.2445 25.65C19.8645 25.19 19.5445 24.68 19.2845 24.12C19.0445 23.56 18.9245 22.93 18.9245 22.23C18.9245 21.31 19.1045 20.46 19.4645 19.68C19.8445 18.88 20.3345 18.18 20.9345 17.58C21.5545 16.98 22.2245 16.52 22.9445 16.2C23.6845 15.86 24.4145 15.69 25.1345 15.69C26.2945 15.69 27.3145 16 28.1945 16.62C29.0745 17.22 29.7645 18 30.2645 18.96C30.7845 19.92 31.0445 20.93 31.0445 21.99C31.0445 22.93 30.8645 23.77 30.5045 24.51C30.1445 25.25 29.6545 25.9 29.0345 26.46C28.4345 27 27.7645 27.48 27.0245 27.9C26.3045 28.32 25.5745 28.68 24.8345 28.98C24.3145 29.2 23.5945 29.41 22.6745 29.61C21.7745 29.81 20.7345 29.98 19.5545 30.12C18.3945 30.28 17.1745 30.4 15.8945 30.48C14.6145 30.58 13.3545 30.63 12.1145 30.63ZM32.8145 30.15C31.6545 30.15 30.5145 30.09 29.3945 29.97C28.2745 29.85 27.2345 29.67 26.2745 29.43C25.3345 29.19 24.5145 28.9 23.8145 28.56L25.8845 25.32C26.4845 25.48 27.1845 25.61 27.9845 25.71C28.8045 25.79 29.6545 25.85 30.5345 25.89C31.4345 25.93 32.2945 25.95 33.1145 25.95C33.8745 25.95 34.4145 26.15 34.7345 26.55C35.0745 26.93 35.2445 27.41 35.2445 27.99C35.2445 28.61 35.0345 29.13 34.6145 29.55C34.1945 29.95 33.5945 30.15 32.8145 30.15ZM12.1145 30.63C9.95453 30.63 8.12453 30.46 6.62453 30.12C5.14453 29.8 3.93453 29.34 2.99453 28.74C2.07453 28.12 1.40453 27.4 0.984531 26.58C0.564531 25.76 0.354531 24.86 0.354531 23.88C0.354531 23.24 0.404531 22.6 0.504531 21.96C0.624531 21.3 0.764531 20.66 0.924531 20.04C1.10453 19.42 1.26453 18.86 1.40453 18.36L5.15453 19.23C5.07453 19.59 4.98453 19.98 4.88453 20.4C4.78453 20.82 4.70453 21.23 4.64453 21.63C4.58453 22.01 4.55453 22.36 4.55453 22.68C4.55453 23.42 4.81453 24.08 5.33453 24.66C5.87453 25.22 6.75453 25.66 7.97453 25.98C9.19453 26.28 10.8345 26.43 12.8945 26.43L13.4945 29.67L12.1145 30.63ZM25.1645 12.9C24.5445 12.9 24.0145 12.69 23.5745 12.27C23.1545 11.85 22.9445 11.33 22.9445 10.71C22.9445 10.09 23.1545 9.56 23.5745 9.12C24.0145 8.68 24.5445 8.46 25.1645 8.46C25.7645 8.46 26.2745 8.68 26.6945 9.12C27.1345 9.56 27.3545 10.09 27.3545 10.71C27.3545 11.33 27.1345 11.85 26.6945 12.27C26.2745 12.69 25.7645 12.9 25.1645 12.9ZM32.8516 30.15L33.1516 25.95C34.0716 25.95 34.7316 25.86 35.1316 25.68C35.5316 25.48 35.7716 25.12 35.8516 24.6C35.9316 24.06 35.9516 23.28 35.9116 22.26L35.3716 8.04H39.6016L40.2016 22.56C40.2416 23.72 40.1916 24.77 40.0516 25.71C39.9316 26.63 39.6216 27.42 39.1216 28.08C38.6416 28.74 37.8916 29.25 36.8716 29.61C35.8716 29.97 34.5316 30.15 32.8516 30.15ZM44.0978 30L43.5278 10.14H47.7278L48.2978 30H44.0978ZM42.4478 8.22L41.9378 6.12C42.6378 6 43.1578 5.9 43.4978 5.82C43.8578 5.74 44.2378 5.65 44.6378 5.55L44.3378 6.3C43.8178 6.12 43.3178 5.77 42.8378 5.25C42.3778 4.71 42.1478 4.1 42.1478 3.42C42.1478 2.7 42.3078 2.12 42.6278 1.68C42.9478 1.24 43.3578 0.919999 43.8578 0.719998C44.3578 0.519998 44.8778 0.419998 45.4178 0.419998C45.7178 0.419998 45.9978 0.439999 46.2578 0.479999C46.5378 0.519999 46.7878 0.579998 47.0078 0.659999L46.7678 2.82C46.5678 2.78 46.3678 2.74 46.1678 2.7C45.9678 2.66 45.7478 2.64 45.5078 2.64C45.2478 2.64 45.0078 2.73 44.7878 2.91C44.5878 3.07 44.4878 3.27 44.4878 3.51C44.4878 3.85 44.6078 4.15 44.8478 4.41C45.0878 4.67 45.3678 4.88 45.6878 5.04C46.0278 5.18 46.3078 5.26 46.5278 5.28L44.8778 5.46C45.4178 5.32 45.9278 5.18 46.4078 5.04C46.8878 4.88 47.3378 4.72 47.7578 4.56L48.3578 6.57C47.8578 6.75 47.2678 6.95 46.5878 7.17C45.9278 7.37 45.2378 7.56 44.5178 7.74C43.8178 7.92 43.1278 8.08 42.4478 8.22ZM62.3105 7.16V0.799999H73.3905V30H66.2705V7.16H62.3105ZM78.3095 9.04C78.4162 6.18666 79.3495 3.98667 81.1095 2.44C82.8695 0.893332 85.2562 0.119998 88.2695 0.119998C90.2695 0.119998 91.9762 0.466665 93.3895 1.16C94.8295 1.85333 95.9095 2.8 96.6295 4C97.3762 5.2 97.7495 6.54667 97.7495 8.04C97.7495 9.8 97.3095 11.24 96.4295 12.36C95.5495 13.4533 94.5229 14.2 93.3495 14.6V14.76C94.8695 15.2667 96.0695 16.1067 96.9495 17.28C97.8295 18.4533 98.2695 19.96 98.2695 21.8C98.2695 23.4533 97.8829 24.92 97.1095 26.2C96.3629 27.4533 95.2562 28.44 93.7895 29.16C92.3495 29.88 90.6295 30.24 88.6295 30.24C85.4295 30.24 82.8695 29.4533 80.9495 27.88C79.0562 26.3067 78.0562 23.9333 77.9495 20.76H84.5895C84.6162 21.9333 84.9495 22.8667 85.5895 23.56C86.2295 24.2267 87.1629 24.56 88.3895 24.56C89.4295 24.56 90.2295 24.2667 90.7895 23.68C91.3762 23.0667 91.6695 22.2667 91.6695 21.28C91.6695 20 91.2562 19.08 90.4295 18.52C89.6295 17.9333 88.3362 17.64 86.5495 17.64H85.2695V12.08H86.5495C87.9095 12.08 89.0029 11.8533 89.8295 11.4C90.6829 10.92 91.1095 10.08 91.1095 8.88C91.1095 7.92 90.8429 7.17333 90.3095 6.64C89.7762 6.10667 89.0429 5.84 88.1095 5.84C87.0962 5.84 86.3362 6.14667 85.8295 6.76C85.3495 7.37333 85.0695 8.13333 84.9895 9.04H78.3095ZM123.248 19.08H116.288V26.2H109.808V19.08H102.848V12.96H109.808V5.8H116.288V12.96H123.248V19.08Z" fill="#0397D6"/>
</svg>