<svg xmlns="http://www.w3.org/2000/svg" width="100" height="20" viewBox="0 0 143 31" fill="none">
<path d="M11.9905 30.63L12.7705 26.43C14.0105 26.43 15.1905 26.39 16.3105 26.31C17.4305 26.23 18.4605 26.13 19.4005 26.01C20.3605 25.89 21.1905 25.76 21.8905 25.62C22.6105 25.48 23.1605 25.35 23.5405 25.23C24.2205 25.01 24.8005 24.74 25.2805 24.42C25.7605 24.1 26.1305 23.74 26.3905 23.34C26.6505 22.94 26.7805 22.54 26.7805 22.14C26.7805 21.86 26.7305 21.58 26.6305 21.3C26.5305 21.02 26.3905 20.76 26.2105 20.52C26.0505 20.28 25.8505 20.09 25.6105 19.95C25.3905 19.79 25.1605 19.71 24.9205 19.71C24.6005 19.71 24.2805 19.83 23.9605 20.07C23.6605 20.31 23.4105 20.63 23.2105 21.03C23.0305 21.41 22.9405 21.84 22.9405 22.32C22.9405 22.66 23.0405 23.02 23.2405 23.4C23.4405 23.78 23.7205 24.15 24.0805 24.51C24.4605 24.85 24.8905 25.15 25.3705 25.41L21.3805 26.94C20.9405 26.52 20.5205 26.09 20.1205 25.65C19.7405 25.19 19.4205 24.68 19.1605 24.12C18.9205 23.56 18.8005 22.93 18.8005 22.23C18.8005 21.31 18.9805 20.46 19.3405 19.68C19.7205 18.88 20.2105 18.18 20.8105 17.58C21.4305 16.98 22.1005 16.52 22.8205 16.2C23.5605 15.86 24.2905 15.69 25.0105 15.69C26.1705 15.69 27.1905 16 28.0705 16.62C28.9505 17.22 29.6405 18 30.1405 18.96C30.6605 19.92 30.9205 20.93 30.9205 21.99C30.9205 22.93 30.7405 23.77 30.3805 24.51C30.0205 25.25 29.5305 25.9 28.9105 26.46C28.3105 27 27.6405 27.48 26.9005 27.9C26.1805 28.32 25.4505 28.68 24.7105 28.98C24.1905 29.2 23.4705 29.41 22.5505 29.61C21.6505 29.81 20.6105 29.98 19.4305 30.12C18.2705 30.28 17.0505 30.4 15.7705 30.48C14.4905 30.58 13.2305 30.63 11.9905 30.63ZM32.6905 30.15C31.5305 30.15 30.3905 30.09 29.2705 29.97C28.1505 29.85 27.1105 29.67 26.1505 29.43C25.2105 29.19 24.3905 28.9 23.6905 28.56L25.7605 25.32C26.3605 25.48 27.0605 25.61 27.8605 25.71C28.6805 25.79 29.5305 25.85 30.4105 25.89C31.3105 25.93 32.1705 25.95 32.9905 25.95C33.7505 25.95 34.2905 26.15 34.6105 26.55C34.9505 26.93 35.1205 27.41 35.1205 27.99C35.1205 28.61 34.9105 29.13 34.4905 29.55C34.0705 29.95 33.4705 30.15 32.6905 30.15ZM11.9905 30.63C9.83051 30.63 8.00051 30.46 6.50051 30.12C5.02051 29.8 3.81051 29.34 2.87051 28.74C1.95051 28.12 1.28051 27.4 0.860508 26.58C0.440508 25.76 0.230508 24.86 0.230508 23.88C0.230508 23.24 0.280508 22.6 0.380508 21.96C0.500508 21.3 0.640508 20.66 0.800508 20.04C0.980508 19.42 1.14051 18.86 1.28051 18.36L5.03051 19.23C4.95051 19.59 4.86051 19.98 4.76051 20.4C4.66051 20.82 4.58051 21.23 4.52051 21.63C4.46051 22.01 4.43051 22.36 4.43051 22.68C4.43051 23.42 4.69051 24.08 5.21051 24.66C5.75051 25.22 6.63051 25.66 7.85051 25.98C9.07051 26.28 10.7105 26.43 12.7705 26.43L13.3705 29.67L11.9905 30.63ZM25.0405 12.9C24.4205 12.9 23.8905 12.69 23.4505 12.27C23.0305 11.85 22.8205 11.33 22.8205 10.71C22.8205 10.09 23.0305 9.56 23.4505 9.12C23.8905 8.68 24.4205 8.46 25.0405 8.46C25.6405 8.46 26.1505 8.68 26.5705 9.12C27.0105 9.56 27.2305 10.09 27.2305 10.71C27.2305 11.33 27.0105 11.85 26.5705 12.27C26.1505 12.69 25.6405 12.9 25.0405 12.9ZM32.7275 30.15L33.0275 25.95C33.9475 25.95 34.6075 25.86 35.0075 25.68C35.4075 25.48 35.6475 25.12 35.7275 24.6C35.8075 24.06 35.8275 23.28 35.7875 22.26L35.2475 8.04H39.4775L40.0775 22.56C40.1175 23.72 40.0675 24.77 39.9275 25.71C39.8075 26.63 39.4975 27.42 38.9975 28.08C38.5175 28.74 37.7675 29.25 36.7475 29.61C35.7475 29.97 34.4075 30.15 32.7275 30.15ZM43.9738 30L43.4038 10.14H47.6038L48.1738 30H43.9738ZM42.3238 8.22L41.8138 6.12C42.5138 6 43.0338 5.9 43.3738 5.82C43.7338 5.74 44.1138 5.65 44.5138 5.55L44.2138 6.3C43.6938 6.12 43.1938 5.77 42.7138 5.25C42.2538 4.71 42.0238 4.1 42.0238 3.42C42.0238 2.7 42.1838 2.12 42.5038 1.68C42.8238 1.24 43.2338 0.919999 43.7338 0.719998C44.2338 0.519998 44.7538 0.419998 45.2938 0.419998C45.5938 0.419998 45.8738 0.439999 46.1338 0.479999C46.4138 0.519999 46.6638 0.579998 46.8838 0.659999L46.6438 2.82C46.4438 2.78 46.2438 2.74 46.0438 2.7C45.8438 2.66 45.6238 2.64 45.3838 2.64C45.1238 2.64 44.8838 2.73 44.6638 2.91C44.4638 3.07 44.3638 3.27 44.3638 3.51C44.3638 3.85 44.4838 4.15 44.7238 4.41C44.9638 4.67 45.2438 4.88 45.5638 5.04C45.9038 5.18 46.1838 5.26 46.4038 5.28L44.7538 5.46C45.2938 5.32 45.8038 5.18 46.2838 5.04C46.7638 4.88 47.2138 4.72 47.6338 4.56L48.2338 6.57C47.7338 6.75 47.1438 6.95 46.4638 7.17C45.8038 7.37 45.1138 7.56 44.3938 7.74C43.6938 7.92 43.0038 8.08 42.3238 8.22ZM58.1757 9.04C58.2824 6.18666 59.2157 3.98667 60.9757 2.44C62.7357 0.893332 65.1224 0.119998 68.1357 0.119998C70.1357 0.119998 71.8424 0.466665 73.2557 1.16C74.6957 1.85333 75.7757 2.8 76.4957 4C77.2424 5.2 77.6157 6.54667 77.6157 8.04C77.6157 9.8 77.1757 11.24 76.2957 12.36C75.4157 13.4533 74.3891 14.2 73.2157 14.6V14.76C74.7357 15.2667 75.9357 16.1067 76.8157 17.28C77.6957 18.4533 78.1357 19.96 78.1357 21.8C78.1357 23.4533 77.7491 24.92 76.9757 26.2C76.2291 27.4533 75.1224 28.44 73.6557 29.16C72.2157 29.88 70.4957 30.24 68.4957 30.24C65.2957 30.24 62.7357 29.4533 60.8157 27.88C58.9224 26.3067 57.9224 23.9333 57.8157 20.76H64.4557C64.4824 21.9333 64.8157 22.8667 65.4557 23.56C66.0957 24.2267 67.0291 24.56 68.2557 24.56C69.2957 24.56 70.0957 24.2667 70.6557 23.68C71.2424 23.0667 71.5357 22.2667 71.5357 21.28C71.5357 20 71.1224 19.08 70.2957 18.52C69.4957 17.9333 68.2024 17.64 66.4157 17.64H65.1357V12.08H66.4157C67.7757 12.08 68.8691 11.8533 69.6957 11.4C70.5491 10.92 70.9757 10.08 70.9757 8.88C70.9757 7.92 70.7091 7.17333 70.1757 6.64C69.6424 6.10667 68.9091 5.84 67.9757 5.84C66.9624 5.84 66.2024 6.14667 65.6957 6.76C65.2157 7.37333 64.9357 8.13333 64.8557 9.04H58.1757ZM81.4345 7.16V0.799999H92.5145V30H85.3945V7.16H81.4345ZM97.4336 9.04C97.5402 6.18666 98.4736 3.98667 100.234 2.44C101.994 0.893332 104.38 0.119998 107.394 0.119998C109.394 0.119998 111.1 0.466665 112.514 1.16C113.954 1.85333 115.034 2.8 115.754 4C116.5 5.2 116.874 6.54667 116.874 8.04C116.874 9.8 116.434 11.24 115.554 12.36C114.674 13.4533 113.647 14.2 112.474 14.6V14.76C113.994 15.2667 115.194 16.1067 116.074 17.28C116.954 18.4533 117.394 19.96 117.394 21.8C117.394 23.4533 117.007 24.92 116.234 26.2C115.487 27.4533 114.38 28.44 112.914 29.16C111.474 29.88 109.754 30.24 107.754 30.24C104.554 30.24 101.994 29.4533 100.074 27.88C98.1802 26.3067 97.1802 23.9333 97.0736 20.76H103.714C103.74 21.9333 104.074 22.8667 104.714 23.56C105.354 24.2267 106.287 24.56 107.514 24.56C108.554 24.56 109.354 24.2667 109.914 23.68C110.5 23.0667 110.794 22.2667 110.794 21.28C110.794 20 110.38 19.08 109.554 18.52C108.754 17.9333 107.46 17.64 105.674 17.64H104.394V12.08H105.674C107.034 12.08 108.127 11.8533 108.954 11.4C109.807 10.92 110.234 10.08 110.234 8.88C110.234 7.92 109.967 7.17333 109.434 6.64C108.9 6.10667 108.167 5.84 107.234 5.84C106.22 5.84 105.46 6.14667 104.954 6.76C104.474 7.37333 104.194 8.13333 104.114 9.04H97.4336ZM142.372 19.08H135.412V26.2H128.932V19.08H121.972V12.96H128.932V5.8H135.412V12.96H142.372V19.08Z" fill="#0397D6"/>
</svg>
